<?xml version="1.0" encoding="UTF-8"?>
<!DOCTYPE svg PUBLIC "-//W3C//DTD SVG 1.1//EN" "http://www.w3.org/Graphics/SVG/1.1/DTD/svg11.dtd">
<!-- Creator: CorelDRAW 2018 (64 Bit) -->
<svg xmlns="http://www.w3.org/2000/svg" xml:space="preserve" width="66.4551mm" height="11.1302mm" version="1.1" style="shape-rendering:geometricPrecision; text-rendering:geometricPrecision; image-rendering:optimizeQuality; fill-rule:evenodd; clip-rule:evenodd"
viewBox="0 0 6645.48 1113.01"
 xmlns:xlink="http://www.w3.org/1999/xlink">
 <defs>
  <style type="text/css">
   <![CDATA[
    .fil0 {fill:white}
   ]]>
  </style>
 </defs>
 <g id="Capa_x0020_1">
  <metadata id="CorelCorpID_0Corel-Layer"/>
  <g id="_2847492635840">
   <g>
    <path class="fil0" d="M530.99 634.91l34.21 -171 -154.83 0 -34.2 171 154.82 0zm-506.66 -171l-14.98 -85.51 330.92 0 73.77 -368.86c27.92,6.82 55.29,15.81 81.82,26.88l-68.4 341.98 154.84 0 51.81 -259.07c26.44,21.64 50.81,45.68 72.85,71.78l-37.47 187.29 141.41 0c9.03,27.94 15.84,56.51 20.34,85.51l-178.84 0 -34.2 171 213.04 0c-4.5,29 -11.31,57.57 -20.34,85.52l-209.81 0 -64.63 323.12c-30.36,15.63 -62.11,28.43 -94.84,38.23l72.27 -361.35 -154.83 0 -76.94 384.73c-28.76,0 -57.46,-2.22 -85.86,-6.67l75.62 -378.06 -145.63 0 14.98 -85.52 147.74 0 34.19 -171 -298.83 0z"/>
    <path class="fil0" d="M530.99 634.91l34.21 -171 -154.83 0 -34.2 171 154.82 0zm-506.66 -171l-14.98 -85.51 330.92 0 73.77 -368.86c27.92,6.82 55.29,15.81 81.82,26.88l-68.4 341.98 154.84 0 51.81 -259.07c26.44,21.64 50.81,45.68 72.85,71.78l-37.47 187.29 141.41 0c9.03,27.94 15.84,56.51 20.34,85.51l-178.84 0 -34.2 171 213.04 0c-4.5,29 -11.31,57.57 -20.34,85.52l-209.81 0 -64.63 323.12c-30.36,15.63 -62.11,28.43 -94.84,38.23l72.27 -361.35 -154.83 0 -76.94 384.73c-28.76,0 -57.46,-2.22 -85.86,-6.67l75.62 -378.06 -145.63 0 14.98 -85.52 147.74 0 34.19 -171 -298.83 0z"/>
    <path class="fil0" d="M382.71 629.55l143.89 0 32.06 -160.28 -143.91 0 -32.04 160.28zm152.67 10.72l-165.75 0 36.35 -181.72 165.76 0 -36.36 181.72zm-332.77 453.76c24.82,3.62 50.06,5.57 75.11,5.76l76.95 -384.73 165.76 0 -71.78 358.94c28.51,-9.05 56.4,-20.48 83.07,-34.04l64.99 -324.9 210.29 0c7.7,-24.46 13.73,-49.57 17.96,-74.79l-213.29 0 36.34 -181.72 176.95 0c-4.23,-25.23 -10.26,-50.34 -17.96,-74.76l-144.04 0 38.23 -191.18c-19.4,-22.79 -40.75,-44.07 -63.58,-63.38l-50.92 254.56 -165.76 0 68.82 -344.11c-23.2,-9.44 -47.24,-17.36 -71.55,-23.58l-73.53 367.69 -328.96 0 13.11 74.76 300.89 0 -36.35 181.72 -147.63 0 -13.1 74.79 145.79 0 -75.81 378.97zm83.89 16.5l-4.38 0c-28.93,0 -58.1,-2.27 -86.69,-6.75l-5.53 -0.86 75.44 -377.14 -145.46 0 16.85 -96.23 147.84 0 32.07 -160.28 -296.82 0 -16.86 -96.22 332.92 0 74.01 -370.04 5.42 1.32c28.14,6.89 55.93,16.01 82.62,27.15l4.06 1.68 -67.99 339.89 143.92 0 52.69 -263.51 6.9 5.66c26.6,21.77 51.34,46.15 73.54,72.46l1.67 1.98 -36.69 183.41 138.78 0 1.19 3.71c9.1,28.13 16.01,57.18 20.54,86.32l0.97 6.19 -180.72 0 -32.06 160.28 212.78 0 -0.97 6.18c-4.53,29.16 -11.44,58.21 -20.54,86.34l-1.19 3.71 -209.32 0 -64.28 321.36 -2.28 1.16c-30.61,15.76 -62.83,28.76 -95.76,38.62l-8.55 2.55 72.74 -363.69 -143.91 0 -76.95 384.75z"/>
    <path class="fil0" d="M379.21 632.42l149.75 0 33.2 -166.01 -149.75 0 -33.2 166.01zm153.82 4.97l-159.88 0 35.19 -175.95 159.89 0 -35.2 175.95zm-333.82 459.03c26.69,4.06 53.87,6.17 80.86,6.25l76.95 -384.73 159.91 0 -72.06 360.27c30.73,-9.46 60.78,-21.68 89.4,-36.33l64.79 -323.94 210.03 0c8.4,-26.27 14.87,-53.34 19.25,-80.55l-213.18 0 35.2 -175.95 177.98 0c-4.38,-27.22 -10.85,-54.29 -19.25,-80.55l-142.63 0 37.83 -189.09c-20.81,-24.56 -43.85,-47.37 -68.55,-67.89l-51.39 256.98 -159.92 0 68.6 -342.97c-24.93,-10.27 -50.84,-18.8 -77.06,-25.33l-73.66 368.3 -330.02 0 14.12 80.55 299.79 0 -35.19 175.95 -147.7 0 -14.1 80.55 145.7 0 -75.7 378.48zm84.95 11.23l-2.04 0c-28.79,0 -57.8,-2.25 -86.25,-6.7l-2.56 -0.4 0.51 -2.54 75.02 -375.1 -145.54 0 15.83 -90.49 147.8 0 33.2 -166.01 -297.9 0 -15.85 -90.48 331.86 0 73.87 -369.42 2.53 0.63c27.98,6.83 55.64,15.91 82.18,26.98l1.89 0.79 -0.41 1.99 -67.8 339.03 149.76 0 52.23 -261.12 3.2 2.61c26.45,21.66 51.07,45.9 73.17,72.11l0.78 0.9 -37.11 185.5 140.18 0 0.56 1.71c9.04,27.99 15.93,56.87 20.44,85.88l0.44 2.89 -179.71 0 -33.21 166.01 212.92 0 -0.44 2.88c-4.51,29.02 -11.38,57.9 -20.44,85.9l-0.56 1.71 -209.58 0 -64.45 322.31 -1.08 0.55c-30.43,15.65 -62.49,28.57 -95.26,38.41l-3.97 1.16 72.5 -362.43 -149.78 0 -76.93 384.74z"/>
    <path class="fil0" d="M385.74 627.07l138.82 0 31.07 -155.32 -138.83 0 -31.06 155.32zm151.68 15.69l-170.81 0 37.33 -186.7 170.83 0 -37.35 186.7zm-331.85 449.19c23.16,3.27 46.71,5.06 70.13,5.34l76.94 -384.71 170.83 0 -71.56 357.77c26.63,-8.68 52.68,-19.45 77.61,-32.06l65.14 -325.71 210.52 0c7.11,-22.83 12.76,-46.27 16.83,-69.82l-213.38 0 37.35 -186.7 176.03 0c-4.07,-23.54 -9.72,-46.98 -16.83,-69.8l-145.25 0 38.6 -192.95c-18.2,-21.28 -38.11,-41.23 -59.32,-59.45l-50.48 252.4 -170.83 0 69.01 -345.04c-21.69,-8.73 -44.12,-16.14 -66.78,-22.05l-73.42 367.09 -328.03 0 12.23 69.8 301.82 0 -37.33 186.7 -147.59 0 -12.22 69.82 145.85 0 -75.87 379.37zm82.96 21.07l-6.42 0c-29.03,0 -58.33,-2.27 -87.07,-6.78l-8.08 -1.27 75.35 -376.7 -145.39 0 17.72 -101.2 147.9 0 31.05 -155.32 -295.85 0 -17.74 -101.18 333.85 0 74.11 -370.57 7.94 1.93c28.27,6.91 56.19,16.08 82.99,27.24l5.94 2.47 -67.79 338.93 138.83 0 53.12 -265.55 10.08 8.25c26.74,21.88 51.59,46.37 73.89,72.79l2.43 2.89 -36.33 181.62 137.55 0 1.76 5.41c9.12,28.24 16.07,57.41 20.64,86.72l1.39 9.05 -181.57 0 -31.06 155.32 212.63 0 -1.39 9.06c-4.56,29.27 -11.51,58.45 -20.64,86.71l-1.74 5.43 -209.11 0 -64.09 320.52 -3.36 1.74c-30.77,15.83 -63.11,28.87 -96.19,38.78l-12.5 3.73 72.96 -364.77 -138.85 0 -76.96 384.75z"/>
   </g>
   <g>
    <path class="fil0" d="M4697.29 708.62c14.59,0.6 24.68,0.6 32.41,0.6 57.17,0 101.1,-23.1 130.57,-68.62 25.48,-39.39 32.28,-84.67 32.28,-105.22 0,-44.54 -14.88,-89.39 -37.08,-111.75 -36.67,-32.51 -82.66,-44.04 -110.91,-44.04 -17.78,0 -28.22,2.2 -33.84,7.1 -0.31,0.28 -0.67,0.54 -1.02,0.79 -0.98,0.65 -4.35,4.1 -7.27,21.34l-5.14 299.8zm32.41 20.44c-9.55,0 -22.58,0.01 -43.03,-1.07 -5.33,-0.29 -9.49,-4.74 -9.39,-10.08l5.32 -310.17c0,-0.49 0.05,-0.97 0.12,-1.46 2.23,-13.43 5.8,-28.04 15.4,-34.91 12.09,-10.23 30.24,-11.59 46.44,-11.59 33.33,-0.01 83.47,12.91 124.32,49.21 0.15,0.13 0.27,0.26 0.42,0.4 26.17,26.17 43.09,75.62 43.09,125.99 0.01,28.21 -9.29,75.54 -35.47,115.99 -22.92,35.44 -67.09,77.7 -147.22,77.7zm681.63 14.16l182.16 0c-16.57,-57.39 -69.32,-245.12 -75.97,-268.93 -1.15,-4.33 -2.58,-9.66 -3.83,-13.4 -0.47,1.06 -1,2.43 -1.61,4.31 -0.06,0.14 -0.1,0.31 -0.16,0.44 -4.32,11.22 -80.11,219.06 -100.59,277.58zm195.4 19.81l-209.28 0c-3.18,0 -6.16,-1.51 -8.03,-4.06 -1.85,-2.57 -2.38,-5.87 -1.41,-8.9 8.53,-26.46 99.6,-276.38 105.32,-291.33 2.07,-6.29 6.91,-20.4 22.04,-20.4 13.12,0 16.55,12.91 21.3,30.75 7.23,25.99 69.98,249.21 79.56,281.17 0.9,3.01 0.33,6.26 -1.54,8.78 -1.88,2.51 -4.84,4 -7.96,4zm-2938.84 -421.66l-0.01 0 0.01 0zm812.28 735.36c95.31,0 129.52,1.85 145.98,2.74 4.86,0.27 8.12,0.43 10.86,0.46l0 -23.73 -48.49 0c-6.71,0 -19.12,-2.51 -26.82,-19.33 -5.06,-11.1 -7.53,-26.78 -7.53,-47.94 0,-9.25 -0.75,-68.19 -1.54,-130.58 -0.81,-64.2 -1.65,-130.55 -1.66,-142.18 -1.07,-24.7 -2.1,-288.54 -2.1,-299.79 0,-15.34 0,-51.34 37.54,-51.34l45.3 0 0 -23.64c-2,0.06 -4.5,0.16 -7.61,0.29 -21.31,0.84 -71.21,2.84 -202.35,2.84 -15.88,0 -26.39,0.28 -33.06,1.75 -5.43,1.2 -5.93,2.58 -6.21,3.59 -4.29,16.65 -58.61,148.31 -105.53,261.23 -5.96,14.35 -9.91,23.85 -10.65,25.66 -0.03,0.07 -0.04,0.16 -0.07,0.23 -1.3,3 -5.89,14.09 -12.2,29.43 -40.26,97.47 -78.69,189.69 -87.12,204.26 -1.93,3.32 -5.6,5.24 -9.42,4.91 -3.82,-0.32 -7.12,-2.81 -8.46,-6.4 -29.55,-79.16 -62.87,-161.48 -98.17,-248.64 -35.2,-86.9 -71.57,-176.74 -105.76,-267.58 -4.38,-11.62 -7.84,-11.62 -16.23,-11.62 -3.99,0 -10.6,0.35 -19,0.81 -17.18,0.95 -43.15,2.37 -76.59,2.37 -97.31,0 -137.25,-1.96 -154.29,-2.8 -3.31,-0.16 -5.9,-0.28 -7.88,-0.34l0 23.65 32.58 0c26.38,0 44.54,8.76 55.58,26.79 8.83,14.37 12.74,34.06 12.74,63.88l1.1 162.44c0,21.72 -9.77,272.05 -19.22,346.52 -7.35,59.02 -28.96,91.53 -60.84,91.53l-39.99 0 0 23.71c2.2,-0.02 6.18,-0.2 11.59,-0.44 18.41,-0.9 56.73,-2.74 125.08,-2.74 56.15,0 87.26,1.68 103.97,2.6 6.09,0.32 10.56,0.57 13.57,0.6l0 -23.73 -38.93 0c-13.75,0 -33.34,-7.01 -48.58,-40.45 -8.46,-18.46 -14.62,-43.68 -16.56,-67.45 -6.07,-89.18 -7.45,-229.39 -7.45,-251.49 0,-2.75 1.68,-281.35 6.76,-299.09 1.05,-3.71 4.19,-6.47 8.01,-7.07 3.82,-0.6 7.64,1.08 9.78,4.29 9.95,14.95 112.04,264.95 126.32,301.45 7.32,18.8 147.68,348.46 150.66,355.45 4.95,10.82 8.93,13.2 10.05,13.2 5.38,0 11.01,-9.53 14.71,-15.83 0.78,-1.3 1.5,-2.51 2.19,-3.6 2.66,-5.34 23.56,-56.42 43.75,-105.85 29.07,-71.13 65.23,-159.64 77.95,-187.5 6.79,-15.47 26.3,-62.2 48.9,-116.33 52.78,-126.33 93.66,-223.88 100.32,-235.19 1.77,-3.04 5.02,-4.9 8.54,-4.9l6.37 0c5.49,0 9.94,4.45 9.94,9.94l0 323.96c0,72.33 -3.17,267.7 -4.29,281.25 -2.3,32.08 -13.79,45.21 -39.64,45.21l-58.05 0 0 23.71c3.49,-0.05 8.68,-0.26 15.51,-0.53 23.27,-0.93 66.59,-2.65 146.63,-2.65zm157.22 23.04c-3.35,0 -6.91,-0.2 -12.31,-0.5 -16.27,-0.87 -50.12,-2.69 -144.91,-2.69 -79.64,-0.01 -122.7,1.71 -145.84,2.62 -8.36,0.34 -13.91,0.57 -17.72,0.57 -12.23,0 -18.42,-6.56 -18.42,-19.49l0 -26.55c0,-11.54 6.19,-17.35 18.42,-17.35l59.47 0c10.79,0 17.92,0 19.84,-26.91 1.02,-12.1 4.24,-202.16 4.24,-279.72l0 -292.55c-19.43,44.61 -57.37,135.43 -87,206.38 -22.67,54.26 -42.23,101.13 -49.09,116.71 -0.01,0.04 -0.04,0.08 -0.06,0.15 -12.51,27.39 -48.63,115.79 -77.66,186.83 -30,73.47 -42.47,103.83 -44.83,108.07 -0.09,0.16 -0.18,0.3 -0.26,0.46 -0.67,1.07 -1.37,2.25 -2.11,3.49 -5.65,9.57 -15.08,25.59 -31.81,25.59 -11.16,0 -20.63,-8.39 -28.16,-24.93 -0.02,-0.07 -0.04,-0.11 -0.07,-0.19 -1.29,-3.05 -143.26,-336.33 -150.96,-356.18 -16.24,-41.4 -78.61,-193.4 -108.62,-263 -2.37,73.92 -3.92,231.07 -3.92,256.23 0,21.99 1.37,161.51 7.41,250.01 3,37.11 19.05,89.56 45.32,89.56l41.44 0c10.85,0 17.33,6.47 17.33,17.35l0 28.67c0,6.47 -2.52,17.37 -19.46,17.37 -3.53,0 -8.12,-0.26 -15.04,-0.63 -16.51,-0.9 -47.28,-2.56 -102.87,-2.56 -67.89,-0.01 -105.89,1.81 -124.14,2.69 -6.2,0.28 -10.32,0.5 -12.9,0.5 -14.01,0 -19.46,-5.46 -19.46,-19.49l0 -27.62c0,-9.73 6.55,-16.28 16.3,-16.28l43.52 0c29.62,0 39,-56.78 41.17,-74.18 9.35,-73.9 19.04,-322.48 19.04,-343.99l-1.08 -162.46c0,-52.33 -12.68,-70.87 -48.49,-70.87l-35.06 -0.01c-10.86,0 -17.34,-6.48 -17.34,-17.33l0 -29.76c0,-9.9 6.81,-16.28 17.34,-16.28 2.64,0 6.1,0.16 11.32,0.41 16.91,0.83 56.49,2.79 153.33,2.79 32.89,-0.01 58.55,-1.42 75.52,-2.36 9.01,-0.49 15.54,-0.84 20.07,-0.84 12.39,0 26.32,1.88 34.78,24.48 34.11,90.6 70.46,180.34 105.6,267.14 32.11,79.27 62.59,154.57 90.12,227.23 18.97,-42.62 57.7,-136.47 76.32,-181.51 6.52,-15.79 10.85,-26.29 12.25,-29.55 0.87,-2.16 4.59,-11.12 10.68,-25.81 24.86,-59.79 100.44,-241.77 104.65,-258.54l0.04 -0.2c5.46,-20.05 28.84,-20.04 58.44,-20.04 130.74,-0.01 180.37,-1.99 201.56,-2.83 5.8,-0.24 9.31,-0.37 11.94,-0.37 6.1,0 16.3,2.52 16.3,19.47l0 24.43c0,12.93 -6.2,19.48 -18.42,19.48l-46.72 -0.01c-12.25,0 -17.71,4.58 -17.71,31.51 0,19.65 1.1,277.68 2.11,299.08l0 0.47c0,10.84 0.84,77.6 1.64,142.16 0.81,62.46 1.56,121.46 1.56,130.84 0,29.26 5.56,47.45 14.51,47.45l50.99 0c10.86,0 17.35,6.47 17.35,17.35l0 26.55c0,12.93 -6.55,19.49 -19.48,19.49zm713.36 -590.67l0 0.03 0 -0.03zm-481.61 567.63c114.08,0 202.2,0.41 266.55,0.73 40.69,0.19 72.81,0.34 99.01,0.34l0.16 0c48.3,0.77 74.41,1.51 86.96,1.88 5.09,0.16 8.17,0.25 9.56,0.25 7.49,-0.01 11.79,-2.79 13.89,-9.03l47.06 -157.89 -15.16 -8.93c-0.09,0.07 -0.18,0.16 -0.26,0.25 -18.31,21.57 -79.79,90.41 -109.77,114.61 -29.8,24.1 -63.96,35.02 -85.97,37.22 -22.64,2.15 -67.19,3.23 -85.78,3.23 -56.37,0 -76.09,-3.6 -92.74,-10.25 -0.16,-0.08 -0.33,-0.14 -0.47,-0.21 -21.33,-9.86 -31.27,-38.37 -31.27,-89.74 0.01,-6.82 -0.7,-24.98 -1.59,-47.99 -1.56,-40.09 -3.71,-94.98 -3.71,-131.54l0 -63.73c0,-5.47 4.45,-9.92 9.94,-9.92 45.55,-0.01 79.35,1.99 109.61,6.48 22.47,3.38 51.44,17.67 65.55,42.04 0.12,0.19 0.23,0.41 0.33,0.62 5.91,12.15 17.1,37.57 21.74,55.94 0.06,0.23 0.13,0.47 0.19,0.67l22.19 -4.63c0.12,-0.02 0.26,-0.05 0.42,-0.06 -2.01,-21.66 -6.19,-72.12 -6.19,-119.81 0,-37.46 0,-88.05 2.88,-109.18l-25.54 -2.84c-0.23,22.17 -13.39,53.45 -26.11,71.09 -0.14,0.18 -0.28,0.37 -0.44,0.54 -16.81,20.19 -33.54,31.37 -54.19,36.23 -14.56,3.66 -64.16,6.66 -110.44,6.66 -2.65,-0.01 -5.21,-1.07 -7.07,-2.97 -1.84,-1.89 -2.9,-4.42 -2.87,-7.07l3.18 -309.12c0.03,-2.66 1.12,-5.2 3.05,-7.04 1.94,-1.86 4.52,-2.85 7.17,-2.77l140.22 4.25c32.48,1.21 64.5,17.07 85.66,30.17 25.24,15.37 121.62,111.1 128.52,122.13 0.03,0.06 0.08,0.13 0.11,0.19 0.07,0.09 0.13,0.18 0.19,0.25l14.66 -7.33c-3.27,-9.39 -14.29,-53.66 -29.35,-114.53 -6.17,-24.95 -11.57,-46.8 -13.66,-54.57 -1.82,0.04 -5.52,0.31 -9.41,0.58 -8.99,0.64 -21.32,1.53 -32.56,1.53l-372.99 1.07c-65.01,0 -103.14,-1.44 -128.36,-2.4 -11.05,-0.42 -19.37,-0.73 -26.39,-0.78l0 22.99 0 0.7 36.81 0c35.24,0 48.72,12.65 53.41,50.12 0,0.08 0,0.15 0.01,0.24 1.19,11.72 3.24,146.87 3.24,230.43l0.01 355.83c0,18.81 -0.85,33.95 -11.5,43.61 -10.08,9.15 -26.53,10.93 -51.54,10.93l-31.86 0c-0.27,0 -0.49,0.01 -0.7,0.01l0 21.95c0,0.71 0.01,1.31 0.04,1.77 5.78,-0.04 13.32,-0.45 23.68,-1.02 6.08,-0.33 13.02,-0.73 21.11,-1.09 0.16,-0.02 0.32,-0.02 0.49,-0.02 8.91,0 19.36,-0.2 31.48,-0.41 16.9,-0.31 36.07,-0.66 58.81,-0.66zm462.24 23.04c-1.69,0 -4.7,-0.1 -10.13,-0.26 -12.51,-0.36 -38.51,-1.12 -86.6,-1.88 -26.24,0 -58.37,-0.16 -99.06,-0.34 -64.33,-0.3 -152.42,-0.71 -266.45,-0.71 -22.56,-0.01 -41.63,0.34 -58.45,0.64 -12.12,0.21 -22.6,0.41 -31.63,0.41 -7.91,0.38 -14.75,0.76 -20.71,1.08 -10.91,0.63 -18.81,1.06 -25.18,1.06 -12.93,0 -19.49,-7.27 -19.49,-21.61l0.01 -22.32c0,-12.02 7.86,-19.46 20.53,-19.46l31.88 0c15.75,0 32.58,-0.71 38.22,-5.8 4.17,-3.81 4.96,-13.09 4.96,-28.91l0 -355.84c0,-86.37 -2.1,-217.45 -3.11,-228.35 -3.62,-28.76 -10.07,-32.6 -33.71,-32.6l-41.41 -0.01c-5.99,0 -10.83,-3 -13.26,-8.27 -1.4,-3.05 -1.97,-6.6 -1.97,-12.25l0 -25.51c0,-10.38 6.95,-17.34 17.35,-17.34 7.88,0 17.01,0.34 29.63,0.83 25.06,0.92 62.97,2.37 127.57,2.37l372.99 -1.09c10.57,0 22.48,-0.84 31.19,-1.47 5.27,-0.37 9.07,-0.64 11.33,-0.64 12.07,0 16.41,7.57 17.91,12.08 0.05,0.14 0.09,0.28 0.14,0.42 1.61,5.68 7.24,28.41 14.35,57.15 10.5,42.47 26.39,106.65 28.86,112.9 2.78,6.93 4.45,15.78 -7.3,22.82 -0.23,0.13 -0.44,0.25 -0.67,0.36l-16.99 8.5c-9.23,4.62 -19.93,1.36 -25.55,-7.81 -6.78,-9.5 -99.11,-101.78 -122.13,-115.8 -19.18,-11.88 -47.85,-26.2 -75.94,-27.24l-130.02 -3.94 -2.97 288.91c44.29,-0.4 85.06,-3.36 95.72,-6.03 16.47,-3.88 29.43,-12.66 43.42,-29.38 10.75,-15.03 22.18,-42.51 22.18,-59.78 0,-12.2 6.9,-19.47 18.42,-19.47 0.37,0 0.75,0.02 1.1,0.06l28.68 3.19c0.29,0.03 0.56,0.06 0.85,0.12 3,0.59 7.16,1.43 10.65,4.06 2.75,2.07 7.17,6.86 5.7,15.77 -3.06,17.32 -3.06,72.42 -3.06,108.87 0,48.33 4.37,99.7 6.3,119.85 1.28,8.68 -3.03,13.37 -5.76,15.43 -3.48,2.59 -7.62,3.42 -10.64,4.03l-25.23 5.26c-9.84,2.37 -16.63,-2.84 -20.24,-15.44 -0.02,-0.1 -0.07,-0.22 -0.08,-0.31 -3.65,-14.52 -12.99,-37.01 -20.22,-51.93 -10.35,-17.55 -33.5,-29.38 -51.12,-32.03 -27.04,-4 -57.19,-5.97 -96.79,-6.24l0.01 53.78c0,36.17 2.12,90.85 3.69,130.79 0.9,23.21 1.61,41.54 1.61,48.74 0,41.32 6.56,65.42 19.5,71.62 14.01,5.53 32.55,8.74 85.13,8.74 17.74,0 62.18,-1.07 83.86,-3.14 19.11,-1.92 49.01,-11.55 75.43,-32.89 27.43,-22.17 87.11,-88.44 107.37,-112.35 0.17,-0.2 0.34,-0.4 0.54,-0.58 10.14,-10.17 18.58,-7.39 22.88,-4.64l17.62 10.37c8.05,4.18 11.53,12.06 8.92,20.14l-47.76 160.27c-0.05,0.1 -0.07,0.18 -0.1,0.29 -4.79,14.45 -16.73,22.75 -32.77,22.75zm137.26 -731.26l0 0zm145.1 708.22c88.94,0 125.42,1.97 139.25,3.17l0.43 0.02c3.12,-0.01 5.19,-0.11 6.55,-0.24l0.01 -23.48 -41.95 0c-19.77,0 -33.36,-18.75 -36.41,-50.16 -2.34,-16.55 -5.38,-137.06 -5.38,-196.63l0 -54.17c0,-5.48 4.45,-9.92 9.91,-9.92l36.13 0c56.46,0 101.52,80.7 139.34,156.33 24.08,48.14 81.48,152.49 110.16,178.15 7.71,-0.29 15.83,-0.62 24.37,-0.96 25.04,-1.04 50.93,-2.11 73.1,-2.11 23.01,0 41.77,0.26 57.03,0.61 0,-0.43 0,-0.85 0,-1.31l0 -20.19c0,-4.19 0.62,-7.52 1.72,-10.16 -10.82,-3.94 -20.13,-8.94 -25.68,-14.96 -0.05,-0.08 -0.12,-0.15 -0.18,-0.23 -22.14,-25.45 -79.7,-106.65 -85.76,-115.74 -2.44,-3.68 -8.56,-13.37 -17.02,-26.79 -20.03,-31.78 -53.6,-84.97 -63.15,-96.73 -21.19,-26.78 -36.13,-43.66 -65.28,-53.11 -4.08,-1.33 -6.85,-5.13 -6.85,-9.44l0 -7.43c0,-5.13 3.91,-9.41 9.01,-9.88 85.42,-7.79 185.18,-63.28 185.18,-194.07 0,-36.08 -20.36,-74.61 -57.32,-108.47 -48.33,-44.8 -109.26,-67.48 -181.14,-67.48 -19.96,0 -50.85,0.67 -83.54,1.38 -37.78,0.84 -80.61,1.8 -112.78,1.8 -90.34,0 -131.01,-1.97 -148.38,-2.8 -2.65,-0.11 -4.8,-0.24 -6.53,-0.3l0 23.61 38.96 0c18.77,0 38.33,19.39 39.64,62.74 1.08,28.8 1.07,96.82 1.07,175.56l0.01 103.05c0,98.72 -0.01,200.79 -2.14,306.04 -0.03,16.41 -6.92,43.77 -52.4,43.77l-27.26 0 0 23.02 0 0.67c2.42,-0.04 5.57,-0.21 9.95,-0.42 16.85,-0.9 51.91,-2.74 137.33,-2.74zm139.42 3.19l-0.07 0 0.07 0zm869.05 -0.1c0.34,0.06 0.85,0.11 1.54,0.11 6.83,-0.01 15.3,-0.35 27.04,-0.81 23.97,-0.95 60.21,-2.39 119.55,-2.39 98.36,0 137.91,1.68 159.15,2.6 8.06,0.33 13.48,0.57 18.68,0.6 0.15,-0.74 0.27,-1.96 0.27,-3.9l0.01 -19.83 -33.68 0c-21.4,0 -51.47,-16.43 -70.42,-53.15 -15.82,-30.5 -85.96,-232.64 -109.02,-310.87 -10.37,-34.98 -37.73,-116.01 -64.18,-194.38 -25.32,-75.06 -49.26,-145.95 -59.04,-178.39 -0.01,-0.11 -0.04,-0.19 -0.07,-0.28 -0.64,-2.36 -1.97,-7.18 -3.09,-9.88 -1.02,0.89 -2.36,2.26 -3.42,3.37 -0.7,0.71 -1.43,1.47 -2.2,2.25 -19.01,21.07 -91.45,48.81 -123.87,55.95 -1.09,0.27 -1.88,0.55 -2.42,0.83 1.01,1.79 2.93,4.37 4.12,5.94l0.76 1.01c0.14,0.19 0.26,0.38 0.39,0.59 9.34,14.59 4.24,30.92 0.87,41.71 -0.28,0.92 -0.54,1.77 -0.81,2.63l-0.08 0.24c-10.03,30.08 -96.44,259.23 -104.21,278.76 -32.78,87.37 -110.23,278.35 -126.34,302.51 -15.48,23.23 -31.85,36.39 -46.98,43.52 0.54,1.88 0.82,3.96 0.82,6.23l0 22.58c14.35,-0.38 31.97,-0.64 53.85,-0.64 62.46,0 101.92,1.61 125.49,2.56 8.54,0.36 14.77,0.61 18.55,0.64 0.01,-0.49 0.03,-1.06 0.03,-1.77l0 -21.88c-0.49,-0.05 -1.07,-0.08 -1.79,-0.08l-37.13 0c-31.68,0 -51.36,-22.5 -51.36,-58.76 0,-39.7 60.58,-203.74 61.19,-205.36 1.46,-3.85 5.15,-6.39 9.27,-6.39l232.62 0c4.26,0 8.06,2.73 9.41,6.78 13.14,39.27 54.48,175.35 63.96,213.16 0.02,0.05 0.06,0.14 0.07,0.2 2.44,10.66 4.64,26.12 -4.41,37.47 -9.22,11.57 -25.61,12.9 -37.15,12.9l-26.21 0 0 19.83c0,2 0.12,3.15 0.24,3.79zm-653.86 19.95c-2.17,0 -4.29,-0.71 -6.04,-2.05 -39.15,-30.03 -117.65,-185.65 -118.43,-187.2 -25.41,-50.8 -72.68,-145.34 -121.6,-145.34l-26.19 0 0 44.22c0,66 3.35,182.01 5.19,193.96 0.03,0.19 0.06,0.37 0.07,0.57 1.53,16.14 7.28,32.45 16.68,32.45l43.37 0c6.87,0 18.42,2.38 18.42,18.41l0.01 25.49c0,17.99 -12.65,19.49 -26.74,19.49 -0.18,0 -0.76,-0.03 -1.79,-0.11 -10.87,-0.93 -46.07,-3.08 -137.56,-3.08 -84.89,-0.01 -119.59,1.81 -136.28,2.69 -5.61,0.3 -9.32,0.5 -12.41,0.5 -18.42,0 -18.42,-13.89 -18.42,-20.54l0 -24.44c0,-3.41 0,-6.93 1.55,-10.35 1.37,-3 4.98,-8.06 13.67,-8.06l31.87 0c28.62,0 32.56,-11.58 32.56,-24.08l0 -0.21c2.14,-105.07 2.14,-207.06 2.14,-305.7l0 -103.05c0,-78.56 0,-146.4 -1.05,-174.9 -0.87,-28.3 -10.87,-43.56 -19.83,-43.56l-42.49 -0.01c-7.89,0 -16.3,-4.54 -16.3,-17.33l0 -28.7c0,-15.1 10.21,-17.34 16.3,-17.34 2.37,0 5.61,0.14 11.02,0.4 17.22,0.84 57.57,2.8 147.42,2.8 31.95,-0.01 74.65,-0.96 112.33,-1.79 32.82,-0.74 63.8,-1.41 83.99,-1.41 75.97,0 143.24,25.15 194.59,72.74 41.07,37.62 63.71,81.36 63.71,123.06 0,132.62 -92.63,194.95 -180.42,210.74 24.16,13.08 39.28,32.19 54,50.8 10.23,12.57 42.86,64.3 64.45,98.53 8.07,12.8 14.45,22.91 16.77,26.38 5.74,8.63 62.84,89.12 84.08,113.61 8.63,9.23 37.7,16.86 60.78,18.62 20.98,-2.47 40.72,-16.82 57.45,-41.93 13.07,-19.61 86.37,-197.38 124.31,-298.59 0.03,-0.06 0.04,-0.13 0.07,-0.2 9.88,-24.81 94.52,-249.76 103.84,-277.63 0.25,-0.85 0.52,-1.73 0.81,-2.63 3.3,-10.57 5.35,-18.58 1.51,-24.87l-0.49 -0.65c-3.84,-5.15 -8.64,-11.53 -8.64,-18.75 0.01,-3.47 1.32,-15.01 18.15,-19.2 0.11,-0.02 0.2,-0.05 0.28,-0.06 35.57,-7.8 100.34,-34.96 113.61,-49.99 0.14,-0.16 0.29,-0.31 0.43,-0.45 0.77,-0.77 1.48,-1.5 2.17,-2.2 4.66,-4.82 9.92,-10.27 18.63,-10.27 14.36,0 18.21,13.98 21.26,25.27 9.71,32.21 33.55,102.84 58.8,177.62 26.5,78.54 53.91,159.77 64.4,195.11 24.85,84.31 93.23,279.63 107.61,307.36 17.33,33.58 42.12,42.46 52.8,42.46l36.13 0c4.09,0 17.39,1.38 17.39,19.46l0 20.19c0,21.41 -13.63,23.74 -19.47,23.74 -5.82,0 -11.84,-0.27 -20.17,-0.61 -21.1,-0.92 -60.38,-2.58 -158.31,-2.58 -58.94,-0.01 -94.94,1.42 -118.77,2.36 -11.97,0.47 -20.61,0.83 -27.82,0.83 -9.84,0 -21.62,-4.14 -21.62,-23.74l0 -20.19c0,-18.08 12.49,-19.46 16.32,-19.46l29.74 0c11.32,0 18.8,-1.89 21.64,-5.46 3.39,-4.25 2.21,-13.5 0.59,-20.56 -8.98,-35.69 -46.33,-158.94 -61.29,-204.83l-218.56 -0.01c-15.04,40.72 -57.52,163.5 -57.52,191.92 0,17.74 5.48,38.94 31.52,38.94l37.15 0c18.8,0 21.61,11.52 21.61,18.41l0 23.37c0,6.47 0,21.61 -19.48,21.61 -4.11,0 -10.32,-0.27 -19.74,-0.64 -23.41,-0.96 -62.62,-2.55 -124.68,-2.55 -26.19,-0.01 -46.2,0.37 -61.77,0.84 -20.9,-0.22 -41.91,0.13 -62.86,0 -16.55,-0.49 -37.97,-0.84 -65.55,-0.84 -21.76,-0.01 -47.45,1.05 -72.3,2.07 -9.97,0.42 -19.39,0.81 -28.25,1.11 -0.11,-0.01 -0.24,0.01 -0.35,0.01zm1031.24 -758.37l-0.02 0 0.02 0zm325.86 25.79l0 0zm-329.59 689.01l0 23.71c3.49,-0.05 8.51,-0.26 15.19,-0.54 22.09,-0.92 63.2,-2.64 140.65,-2.64 85.2,0 365.09,0.88 423.44,2.82 9.46,-40.7 43.92,-183.26 50.03,-203.05l-16.72 -6.67c-0.16,0.29 -0.36,0.65 -0.59,1.09 -15.54,38.14 -89.22,171.85 -153.62,177.79 -57.83,5.36 -105.49,5.37 -155.96,5.37l-60.54 -0.01c-5.19,0 -9.49,-3.99 -9.89,-9.16 -3.11,-40.79 -3.26,-249.33 -3.26,-290.74l0.01 -91.35c0,-52.04 1.58,-146.36 2.5,-202.71 0.44,-24.25 0.72,-41.77 0.72,-45.85 0,-32.65 7.27,-49.22 47.03,-49.22l49.93 0c0.28,0 0.5,0 0.71,-0.01l0.01 -23 0 -0.68c-1.98,0 -5.59,0.14 -10.85,0.37 -20.87,0.83 -69.72,2.81 -167.24,2.81 -71.95,0 -111.08,-1.73 -132.13,-2.68 -5.04,-0.2 -9.08,-0.4 -11.94,-0.48l0 22.97 0 0.7 36.82 0c35.22,0 39.81,22.43 41.72,47.41 1.11,17.53 3.25,130.74 3.25,198.33l0 59.49c0,41.63 -1.31,164.53 -2.28,254.25 -0.53,49.2 -0.94,88.02 -0.94,95.22 0,16.64 -9.64,36.46 -55.61,36.46l-30.44 0zm587.11 43.57c-0.24,0 -0.51,-0.01 -0.75,-0.04 -26.98,-2.07 -330.43,-3.15 -430.52,-3.15 -77.03,-0.01 -117.88,1.71 -139.82,2.62 -8.14,0.33 -13.52,0.57 -17.38,0.57 -18.46,0 -18.47,-14.16 -18.47,-19.49l0.01 -26.55c0,-14.36 9.45,-17.35 17.37,-17.35l32.9 0c35.75,0 35.75,-12.55 35.75,-16.64 0,-7.3 0.43,-46.19 0.96,-95.44 0.95,-89.69 2.28,-212.5 2.28,-254.03l0 -59.49c0,-67.31 -2.13,-179.75 -3.23,-196.95 -1.96,-26.28 -5.91,-28.95 -21.91,-28.95l-39.35 -0.01c-4.06,0 -17.31,-1.46 -17.31,-20.52l0 -25.51c0,-14.33 9.41,-17.34 17.31,-17.34 3.25,0 8.07,0.2 15.36,0.54 20.87,0.91 59.73,2.66 131.24,2.66 97.12,-0.01 145.68,-1.97 166.41,-2.81 6.09,-0.25 9.77,-0.39 12.03,-0.39 19.48,0 19.48,14.92 19.48,20.53l0 24.44c0,5.53 -2,18.41 -20.55,18.41l-49.93 -0.01c-12.69,0 -20.28,1.76 -23.25,5.32 -3.48,4.18 -3.94,14.05 -3.94,24.07 0.01,4.25 -0.3,21.84 -0.71,46.19 -0.94,56.28 -2.52,150.49 -2.52,202.37l0 91.35c0,38.75 0.13,224.33 2.68,280.07l51.17 0c49.99,0 97.22,0 154.14,-5.27 48.11,-4.45 118,-118.31 137.22,-165.91 0.12,-0.26 0.23,-0.52 0.36,-0.78 7.8,-15.38 18.18,-14.53 25.65,-10.94l20.92 8.35c0.62,0.27 1.23,0.59 1.82,0.97 8.67,5.77 7.44,13.05 6.36,19.45 -0.12,0.71 -0.32,1.41 -0.6,2.11 -3.75,10.48 -45.08,180.68 -51.51,209.76 -0.98,4.56 -5.04,7.79 -9.67,7.79zm-5572.02 -762.72l0 0.02 0 -0.02zm-4.18 4.31l0 0zm267.48 714.94l0 0zm-104.37 -587.15l8.52 0c3.24,0 6.27,1.58 8.11,4.24 23.41,33.56 168.97,215.27 188.52,238.24 9.63,11.19 34.3,40.56 65.54,77.76 33.97,40.47 76.25,90.85 116.08,137.89 60.78,71.89 113.93,129.85 133.08,147.88 0.1,0.07 0.17,0.16 0.24,0.23 9.46,9.48 20.72,14.09 34.4,14.09 1.27,0 2.64,0 4.07,-4.6 1.69,-5.41 1.92,-13.43 1.92,-20.54l0 -181.64c0,-141.52 17.38,-384.15 24.49,-452.36 3.63,-43.33 17.67,-65.3 41.74,-65.3l25.15 0 0 -23.69 -0.73 0c-3.18,0 -7.82,0.28 -14.29,0.66 -15.58,0.93 -41.67,2.52 -86.59,2.52 -56.98,0 -91.07,-1.7 -109.36,-2.6 -6.66,-0.33 -11.53,-0.58 -14.58,-0.58l0 23.69 30.47 0c26.07,0 57.84,15.34 65.94,49.05l0.06 0.35c3.56,17.84 8.8,126.04 9.76,163.07 1.96,49.39 3.18,100.1 3.18,200.04l0 96.67c0,5.47 -4.44,9.91 -9.94,9.91l-4.22 -0.01c-2.92,0 -5.67,-1.28 -7.57,-3.5 -6.54,-7.73 -55.55,-68.95 -102.95,-128.18 -37.12,-46.35 -72.16,-90.14 -78.78,-98.19 -32.99,-40.69 -239.54,-293.3 -246.29,-301.48 -6.93,-7.76 -12.84,-10.38 -23.3,-10.38 -4.53,-0.01 -11.83,0.3 -21.06,0.67 -15.52,0.61 -36.81,1.47 -59.68,1.47 -44.95,0 -82.19,-0.71 -110.71,-2.14 -13.48,-0.01 -21.87,-0.46 -27.46,-0.77 -0.97,-0.08 -1.88,-0.13 -2.72,-0.16l0 22.65 23.31 0.93c55.68,1.2 100.94,60.9 100.94,133.14l0 95.59c0,165.23 -9.48,346.09 -9.56,347.88 0,0.07 0,0.13 -0.02,0.22 -2.66,35.83 -8.34,63.63 -16.91,82.59 -11.82,26.24 -27.54,31.74 -38.65,31.74l-33.62 0 0 23.64c5.83,-0.16 15.54,-0.48 26.33,-0.86 27.29,-0.95 64.7,-2.25 85.91,-2.25 34.31,0 74.33,1.47 100.79,2.44 9.96,0.37 18.08,0.67 22.05,0.74l0 -23.71 -25.13 0c-25.27,0 -44.48,-9.41 -57.06,-27.99 -11.43,-16.84 -17.56,-41.39 -18.7,-75.05 -0.37,-13.19 -1.61,-35.63 -3.15,-64.04 -3.18,-57.38 -7.48,-135.99 -7.48,-195.49l0 -214.57c0,-5.48 4.44,-9.91 9.91,-9.91zm554.49 640.17c-18.91,0 -35.16,-6.67 -48.36,-19.82 -19.63,-18.52 -73.38,-77.1 -134.5,-149.4 -39.87,-47.08 -82.15,-97.48 -116.16,-137.95 -31.16,-37.15 -55.79,-66.47 -65.4,-77.61 -16.63,-19.56 -139.29,-172.24 -180.14,-226.73l0 195.82c0,58.94 4.29,137.24 7.44,194.4 1.59,28.56 2.81,51.13 3.16,64.53 2.56,73.84 29.71,83.82 55.95,83.82l26.55 0c12.22,0 18.42,6.55 18.42,19.46l0 25.49c0,4.55 0,18.44 -18.42,18.44 -3.53,0 -12.2,-0.33 -24.19,-0.77 -26.32,-0.97 -66.1,-2.42 -100.07,-2.42 -20.85,-0.01 -58.08,1.29 -85.22,2.22 -16.03,0.56 -27.61,0.97 -31.64,0.97 -7.85,0 -11.49,-4.49 -12.94,-7.16 -1.92,-3.48 -2.29,-7.44 -2.29,-12.33l0.01 -27.62c0,-9.73 6.54,-16.28 16.29,-16.28l37.17 0c7.67,0 14.59,-6.75 20.56,-20.06 7.6,-16.85 12.71,-42.37 15.2,-75.83 0.28,-5.48 9.56,-183.74 9.56,-346.71l0.01 -95.6c0,-28.76 -8.75,-57.53 -23.95,-78.97 -15.39,-21.71 -35.88,-33.89 -57.7,-34.33 -0.05,-0.01 -0.14,0 -0.19,0l-26.39 -1.06c-9.47,-0.12 -16.07,-7.22 -16.07,-17.35l0 -28.69c0,-10.35 5.94,-16.28 16.31,-16.28 2.08,0 4.43,0.13 7.4,0.3 5.39,0.3 13.53,0.76 26.59,0.76 0.15,-0.01 0.32,0 0.48,0.01 28.22,1.4 65.23,2.13 109.97,2.13 22.48,-0.01 43.54,-0.86 58.91,-1.48 9.43,-0.37 16.9,-0.66 21.83,-0.66 16.11,-0.01 27.54,5.11 38.23,17.13 0.05,0.07 0.11,0.17 0.19,0.23 4.3,5.15 213.36,260.87 246.51,301.79 6.68,8.08 41.76,51.92 78.92,98.35 33.32,41.61 69.95,87.35 89.37,111.43l0 -73.94c0,-99.66 -1.22,-150.14 -3.2,-199.32l0 -0.14c-1.14,-44.78 -6.47,-144.65 -9.31,-159.58 -5.67,-23.1 -28.13,-33.63 -46.6,-33.63l-34.01 -0.01c-6.09,0 -16.3,-2.52 -16.3,-19.47l0 -26.56c0,-17.34 14.66,-17.34 19.48,-17.34 3.51,0 8.44,0.25 15.92,0.61 18.14,0.9 51.87,2.59 108.38,2.59 44.32,-0.01 70.03,-1.57 85.4,-2.5 6.8,-0.41 11.7,-0.7 15.48,-0.7 9.6,0 20.57,2.08 20.57,18.41l0 25.49c0,18.08 -11.69,19.48 -15.25,19.48l-29.74 -0.01c-11.96,0 -19.37,15.89 -21.97,47.21 0,0.07 -0.02,0.16 -0.02,0.22 -7.1,67.75 -24.38,309.47 -24.38,450.4l0 181.64c0,9.04 -0.35,18.52 -2.86,26.48 -5.05,16.09 -16.57,18.5 -22.99,18.5zm661.09 -744.32l0.02 0 -0.02 0zm-512.02 0.04l47.45 0c39.66,0 39.66,44.91 39.66,64.09l0 250.69c0,131.12 3.32,206.16 21.6,252.35 0.03,0.05 0.05,0.1 0.07,0.16 23.33,62.2 67.4,112.52 117.89,134.62 44.29,18.96 113.11,25.71 158.56,25.71 67.82,0 137.34,-24.29 181.42,-63.36 52.24,-46.21 80.69,-110.39 86.98,-196.19 3.19,-41.45 5.27,-226.9 5.27,-241.46 0,-48.76 0.23,-163.67 2.24,-177.72 0.03,-0.2 0.06,-0.37 0.1,-0.56 0.09,-0.55 0.23,-1.16 0.34,-1.82 2.14,-11.51 8.71,-46.51 55.05,-46.51l29.38 0 0 -0.7 0 -22.99c-2.26,-0.09 -7.28,0.21 -14.6,0.61 -17.2,0.97 -46.01,2.57 -87.02,2.57 -52.38,0 -92.99,-1.7 -114.78,-2.6 -6.27,-0.27 -11.22,-0.47 -14.45,-0.56l0 23.67 31.51 0c23.51,0 44.17,23.14 49.1,55.05 4.48,25.82 15.01,142.98 15.01,232.11l0 163.57c0,76.71 -24.23,139.09 -70.1,180.44 -29.4,27.22 -88.64,49.38 -132.1,49.38 -56.97,0 -106.86,-22.42 -140.42,-63.1 -0.04,-0.06 -0.11,-0.11 -0.15,-0.17 -28.23,-35.96 -35.22,-91.79 -36.09,-132.33l-0.1 -2.21c-3.46,-111.45 -5.23,-186.54 -5.23,-223.2l0 -70.1c0,-51.87 1,-126.21 2.16,-138.99 2.53,-25.14 23.96,-50.45 66.19,-50.45l34.69 0 0 -23.69c-2.98,0 -8.73,0.21 -16.53,0.51 -24.46,0.94 -70.03,2.67 -139.26,2.67 -85.41,0 -135.73,-1.87 -159.9,-2.76 -6.86,-0.25 -11.51,-0.42 -13.94,-0.42l0 23.69zm385.23 747.46c-49.6,0 -119.38,-7.18 -166.45,-27.36 -56.18,-24.56 -103,-77.67 -128.55,-145.75 -19.42,-49.15 -22.98,-126 -22.98,-259.57l0 -250.69c0,-44.26 -11.44,-44.25 -19.81,-44.25l-49.94 -0.01c-17.35,0 -17.35,-14.12 -17.35,-19.47l0 -25.49c0,-12.55 6.2,-18.41 19.49,-18.41 2.7,0 7.31,0.16 15.01,0.44 24.07,0.9 74.14,2.76 159.19,2.76 68.87,-0.01 114.15,-1.73 138.49,-2.66 8.69,-0.32 14.42,-0.54 17.65,-0.54 13.29,0 19.47,5.86 19.47,18.41l0 27.63c0,11.51 -6.18,17.34 -18.41,17.34l-36.1 -0.01c-31.84,0 -44.85,16.8 -46.42,32.51 -1,10.81 -2.1,82.59 -2.1,137.1l0 70.1c0,36.46 1.75,111.34 5.25,222.58l0.06 2.3c1.15,53.04 12.44,95.8 31.8,120.51 29.74,35.96 74.14,55.76 125.05,55.76 38.5,0 92.82,-20.19 118.61,-44.08 0.04,-0.03 0.07,-0.06 0.1,-0.09 41.64,-37.48 63.63,-94.81 63.63,-165.79l0 -163.57c0,-88.2 -10.33,-203.65 -14.71,-228.8 -0.01,-0.06 -0.01,-0.13 -0.03,-0.19 -3.38,-21.86 -16.04,-38.33 -29.52,-38.33l-33.97 -0.01c-6.48,0 -17.36,-2.38 -17.36,-18.4l0 -27.63c0,-14.33 9.42,-17.34 17.36,-17.34 3.15,0 8.95,0.25 17.75,0.6 21.66,0.91 61.95,2.6 113.95,2.6 40.47,-0.01 68.92,-1.6 85.94,-2.54 7.19,-0.4 11.95,-0.66 14.99,-0.66 7.68,0 20.53,2.52 20.53,19.47l0 23.37c0,17.87 -10.2,20.54 -16.32,20.54l-32.9 -0.01c-27.56,0 -32.68,14.99 -35.55,30.32 -0.12,0.64 -0.22,1.22 -0.34,1.76 -1.46,11.49 -1.98,101.06 -1.98,174.7 0,14.64 -2.12,201.07 -5.35,242.95 -6.66,91.2 -37.31,159.75 -93.59,209.55 -47.55,42.16 -122.12,68.35 -194.59,68.35z"/>
    <g>
     <path class="fil0" d="M4583.3 140.57c2.56,-7.99 30,-83.29 31.6,-87.45 0.99,-2.86 1.92,-4.15 3.85,-4.15 1.58,0 2.21,2.23 3.51,7.02 2.22,7.97 21.06,75.02 23.93,84.58l-62.89 0zm65.78 12.77c3.82,11.49 16.26,52.34 19.14,63.84 1.9,8.3 -0.97,11.48 -9.58,11.48l-8.94 0c-1.59,0 -1.92,1.29 -1.92,2.87l0 6.08c0,2.21 0.33,4.15 3.52,4.15 6.37,0 17.55,-0.97 44.04,-0.97 40.86,0 47.56,0.97 53.62,0.97 2.54,0 2.88,-2.25 2.88,-4.14l0 -6.09c0,-1.59 -0.34,-2.87 -2.24,-2.87l-10.84 0c-4.79,0 -13.09,-3.82 -18.53,-14.37 -4.46,-8.61 -25.22,-67.98 -32.55,-92.86 -6.07,-20.43 -30.98,-91.94 -37.02,-112.05 -0.96,-3.49 -1.58,-5.42 -3.52,-5.42 -1.58,0 -2.54,1.27 -4.14,2.89 -4.79,5.41 -25.53,13.72 -35.76,15.96 -2.54,0.64 -3.17,1.92 -3.17,2.86 0,1.27 1.27,2.89 2.23,4.14 2.23,3.52 0.63,7.67 -0.33,10.87 -2.86,8.62 -28.71,77.25 -31.27,83.6 -10.52,28.12 -33.2,83.64 -37.66,90.34 -6.38,9.58 -14.06,14.04 -21.71,14.04l-8.3 0c-1.91,0 -2.23,0.97 -2.23,2.87l0 6.08c0,2.21 0.32,4.15 2.23,4.15 4.48,0 11.49,-0.97 34.79,-0.97 26.18,0 39.25,0.97 43.41,0.97 2.54,0 2.87,-0.97 2.87,-3.52l0 -7.03c0,-1.27 -0.33,-2.55 -3.51,-2.55l-11.16 0c-9.58,0 -12.45,-7.64 -12.45,-14.68 0,-10.2 15.64,-53.94 18.19,-60.64l69.91 0zm-222.15 -23.94c0,16.91 -0.97,85.86 -1.61,90.65 -1.27,7.64 -7.97,8.61 -14.36,8.61l-9.25 0c-1.6,0 -2.55,0.64 -2.55,1.91l0 8.61c0,1.94 0.95,2.58 2.55,2.58 3.51,0 17.22,-0.97 50.74,-0.97 30.34,0 43.1,0.97 46.92,0.97 1.93,0 2.85,-0.64 2.85,-1.94l0 -8.94c0,-1.58 -0.92,-2.22 -2.53,-2.22l-13.09 0c-6.06,0 -10.84,-1.61 -10.84,-11.48 0.01,-2.89 -0.95,-76.61 -0.95,-79.81l0 -24.57c0,-3.81 0.95,-74.37 0.95,-77.55 0.01,-5.77 4.78,-8.3 12.76,-8.3l9.26 -0.01c1.6,0 2.56,-0.63 2.56,-2.21l0 -8.01c0,-1.89 -0.65,-2.86 -2.27,-2.86 -4.44,0 -14.65,0.97 -47.22,0.97 -31.28,0 -47.56,-0.97 -51.4,-0.97 -1.26,0 -2.2,0.64 -2.2,1.93l0 9.23c0,1.29 0.94,1.93 2.54,1.93l15.34 -0.01c6.68,0 9.86,3.19 10.52,10.86 0.31,4.16 1.28,61.59 1.28,69.26l0 22.34zm-306.42 -5.74c0,-3.84 0.64,-84.59 1.93,-89.06 2.55,3.83 31.92,75.34 37.65,90.01 2.24,5.76 44.37,104.69 45.32,106.92 1.6,3.51 3.53,5.76 5.75,5.76 3.82,0 6.07,-4.8 7.67,-7.34 1.58,-2.9 30,-73.73 36.68,-88.43 5.77,-13.09 41.49,-99.87 44.7,-105.3l1.93 -0.01 0 97.33c0,22.35 -0.97,80.44 -1.3,84.26 -0.63,8.93 -3.49,10.86 -8.93,10.86l-17.86 0c-2.24,0 -2.57,0.64 -2.57,2.22l0.01 8c0,1.91 0.32,2.88 2.56,2.88 4.15,0 16.58,-0.97 49.13,-0.97 37.65,0 43.41,0.97 47.26,0.97 2.54,0 2.87,-0.97 2.87,-2.88l0 -8c0,-1.25 -0.33,-2.22 -2.24,-2.22l-15.31 0c-4.48,0 -7.37,-5.11 -7.37,-17.22 0,-5.76 -0.95,-75.64 -0.95,-82.04 -0.31,-6.7 -0.62,-85.2 -0.62,-90 0,-6.69 0.94,-12.45 8.3,-12.45l14.03 -0.01c2.23,0 2.56,-0.96 2.56,-2.86l0 -7.36c0,-1.89 -0.33,-2.86 -1.94,-2.86 -3.49,0 -14.34,0.97 -64.13,0.97 -9.57,0 -13.73,0.31 -14.68,3.83 -1.6,6.36 -33.51,82.66 -34.79,85.86 -1.93,4.47 -26.18,63.83 -29.68,69.89 -17.9,-47.88 -40.85,-100.87 -61.3,-155.12 -1.9,-5.11 -4.46,-5.43 -7.65,-5.43 -3.82,0 -13.72,0.97 -28.72,0.97 -37.68,0 -46.29,-0.97 -49.47,-0.97 -1.91,0 -2.24,0.97 -2.24,1.93l0 8.94c0,1.24 0.33,2.22 2.24,2.22l10.52 -0.01c14.36,0 17.57,9.59 17.57,24.26l0.31 48.85c0,5.74 -2.87,81.06 -5.73,103.73 -1.29,10.2 -5.12,24.88 -15.34,24.88l-13.09 0c-1.6,0 -1.9,0.97 -1.9,1.91l0.01 8.31c0,2.56 0.29,2.88 2.86,2.88 2.88,0 14.04,-0.97 41.18,-0.97 23.29,0 31.9,0.97 35.41,0.97 2.57,0 2.88,-0.97 2.88,-2.25l0 -8.63c0,-1.25 -0.31,-2.22 -2.22,-2.22l-12.46 0c-10.52,0 -15.65,-17.88 -16.59,-29.67 -1.94,-28.1 -2.25,-71.5 -2.25,-75.33zm-180.54 -98l42.13 1.28c8.63,0.34 17.55,4.49 24.26,8.63 7.34,4.48 36.05,33.18 37.66,35.75 0.97,1.58 2.55,1.89 3.83,1.25l5.11 -2.52c1.61,-0.99 1.61,-1.63 0.95,-3.2 -1.27,-3.21 -11.8,-46.92 -13.08,-51.38 -0.31,-0.97 -0.96,-1.61 -2.56,-1.61 -1.58,0 -7.64,0.64 -12.76,0.64l-112.07 0.33c-29.05,0 -40.23,-0.97 -47.24,-0.97 -1.92,0 -2.24,1.28 -2.24,2.24l0 7.67c0,2.2 0.31,3.18 1.6,3.18l12.45 -0.01c8.63,0 11.81,2.25 13.08,12.46 0.33,3.19 0.95,42.44 0.95,68.93l0 106.93c0,11.16 -1.27,13.4 -15.96,13.4l-9.56 0c-2.24,0 -3.22,0.97 -3.22,2.87l0.01 6.71c0,2.55 0.65,3.52 2.89,3.52 2.87,0 7.01,-0.32 13.72,-0.64 6.38,0 15.31,-0.33 27.13,-0.33 55.26,0 89.09,0.33 109.82,0.33 20.46,0.32 27.48,0.64 29.06,0.64 3.85,0 6.08,-1.94 7.03,-4.78l14.37 -48.23c0.32,-0.95 0,-1.89 -1.28,-2.53l-5.43 -3.18c-0.96,-0.64 -1.91,-0.33 -3.18,0.93 -6.5,7.68 -24.36,27.47 -32.67,34.16 -8.29,6.71 -17.88,9.89 -24.27,10.53 -6.68,0.64 -20.05,0.97 -25.47,0.97 -15.97,0 -21.97,-0.97 -26.77,-2.89 -4.14,-1.9 -7.65,-7.66 -7.65,-24.24 0,-5.76 -1.6,-36.7 -1.6,-53.94l0.01 -19.16c14.04,0 23.87,0.66 32.5,1.93 6.39,0.93 14.04,5.09 17.55,11.15 1.87,3.83 5.06,11.16 6.33,16.28 0.65,2.25 1.27,2.89 2.55,2.58l7.68 -1.61c1.58,-0.33 2.86,-0.66 2.55,-2.54 -0.64,-6.73 -1.93,-22.03 -1.93,-36.42 0.01,-11.15 0,-27.74 0.96,-33.17 0.33,-1.93 -0.96,-2.25 -2.55,-2.57l-8.61 -0.94c-1.59,0 -2.57,0.64 -2.57,2.85 0,6.09 -3.81,15.02 -7.26,19.79 -4.79,5.75 -9.28,8.61 -14.7,9.9 -3.83,0.96 -17.82,1.94 -32.51,1.94l0.96 -92.91zm-270.11 76.92c0,-5.09 0,-46.92 0.31,-60.32 0.31,-6.37 1.6,-11.49 6.39,-13.7 4.14,-2.25 8.93,-2.58 17.87,-2.58 18.52,-0.01 46.59,10.24 63.51,29.04 15.02,16.62 25.85,43.41 25.85,69.59 0,29.68 -9.89,55.85 -22.67,72.77 -16.59,22.03 -41.14,31.28 -59.69,31.28 -10.82,0 -21.69,-1.92 -25.51,-7.64 -4.15,-6.09 -5.45,-11.19 -5.45,-17.56 -0.3,-19.81 -0.61,-74.06 -0.61,-78.19l0 -22.69zm-47.88 15.66c0,24.23 -1.28,96.05 -2.25,102.78 -0.62,5.09 -4.15,7.64 -10.21,7.64l-16.57 0c-1.62,0 -2.57,0.64 -2.57,1.91l0 8.31c0,2.24 0.64,2.88 2.24,2.88 4.46,0 17.22,-0.97 44.99,-0.97 17.57,0 55.21,0.97 60.33,0.97 20.11,0 74.69,-0.32 105.64,-33.84 21.08,-22.99 31.61,-47.24 31.61,-83.95 0,-37.03 -14.68,-63.52 -35.76,-81.07 -30.32,-25.22 -64.8,-29.04 -108.21,-29.04 -7.32,0 -39.24,0.97 -47.53,0.97 -31.93,0 -45.95,-0.97 -50.12,-0.97 -1.27,0 -2.24,0.33 -2.24,1.61l0 9.26c0,1.89 0.97,2.22 2.55,2.22l15.96 -0.01c5.43,0 9.58,1.29 10.54,8.95 0.62,4.79 1.6,50.1 1.6,58.4l0 23.95zm-203.94 22.33c2.55,-7.99 29.99,-83.29 31.59,-87.45 0.94,-2.86 1.92,-4.15 3.82,-4.15 1.61,0 2.25,2.23 3.51,7.02 2.25,7.97 21.07,75.02 23.93,84.58l-62.85 0zm65.74 12.77c3.82,11.49 16.26,52.34 19.15,63.84 1.9,8.3 -0.97,11.48 -9.57,11.48l-8.94 0c-1.62,0 -1.93,1.29 -1.93,2.87l0 6.08c0,2.21 0.31,4.15 3.52,4.15 6.39,0 17.56,-0.97 44.04,-0.97 40.85,0 47.55,0.97 53.61,0.97 2.59,0 2.9,-2.25 2.9,-4.14l0 -6.09c0,-1.59 -0.32,-2.87 -2.24,-2.87l-10.85 0c-4.79,0 -13.11,-3.82 -18.52,-14.37 -4.46,-8.61 -25.21,-67.98 -32.55,-92.86 -6.06,-20.43 -30.97,-91.94 -37.01,-112.05 -0.97,-3.49 -1.62,-5.42 -3.53,-5.42 -1.59,0 -2.56,1.27 -4.14,2.89 -4.79,5.41 -25.54,13.72 -35.75,15.96 -2.56,0.64 -3.19,1.92 -3.19,2.86 0,1.27 1.25,2.89 2.22,4.14 2.26,3.52 0.64,7.67 -0.31,10.87 -2.88,8.62 -28.73,77.25 -31.27,83.6 -10.56,28.12 -33.21,83.64 -37.7,90.34 -6.35,9.58 -14.01,14.04 -21.68,14.04l-8.3 0c-1.91,0 -2.24,0.97 -2.24,2.87l0.01 6.08c0,2.21 0.32,4.15 2.23,4.15 4.45,0 11.49,-0.97 34.79,-0.97 26.18,0 39.26,0.97 43.41,0.97 2.56,0 2.87,-0.97 2.87,-3.52l0 -7.03c0,-1.27 -0.32,-2.55 -3.49,-2.55l-11.18 0c-9.56,0 -12.46,-7.64 -12.46,-14.68 0,-10.2 15.64,-53.94 18.19,-60.64l69.91 0zm-232.98 92.24c-42.46,0 -64.81,-11.49 -84.92,-29.35 -23.63,-21.07 -34.79,-57.8 -34.79,-85.22 0,-32.9 10.53,-62.59 32.89,-86.5 18.18,-19.49 44.67,-34.47 84.25,-34.47 29.04,-0.01 52.98,7.33 64.16,13.42 4.46,2.2 6.07,1.88 6.7,-0.33l2.55 -7.99c0.62,-1.92 1.28,-1.92 6.06,-1.92 4.79,0 5.42,0.64 5.42,5.12 0,6.07 5.76,60.32 7.35,69.9 0.32,2.21 0,3.82 -1.59,4.15l-7.03 1.89c-1.6,0.63 -2.87,-0.64 -3.82,-3.5 -3.52,-12.78 -12.15,-29.03 -25.54,-42.77 -13.72,-13.41 -30.64,-23.93 -54.9,-23.93 -46.59,0 -66.39,42.46 -66.07,89.69 0,20.09 5.74,59.37 28.4,83.28 20.74,21.39 38.95,23.97 49.8,23.97 36.37,0 63.53,-16.59 75.32,-34.16 1.6,-2.57 3.18,-3.82 4.79,-2.57l5.43 4.79c0.93,0.66 1.27,1.93 0,3.82 -18.51,26.83 -49.47,52.69 -94.46,52.69zm-287.58 -105.02c2.54,-7.99 30,-83.29 31.58,-87.45 0.94,-2.86 1.93,-4.15 3.84,-4.15 1.6,0 2.22,2.23 3.52,7.02 2.21,7.97 21.06,75.02 23.92,84.58l-62.86 0zm65.73 12.77c3.83,11.49 16.31,52.34 19.16,63.84 1.93,8.3 -0.97,11.48 -9.58,11.48l-8.96 0c-1.56,0 -1.88,1.29 -1.88,2.87l0 6.08c0,2.21 0.32,4.15 3.5,4.15 6.37,0 17.58,-0.97 44.05,-0.97 40.85,0 47.55,0.97 53.62,0.97 2.54,0 2.86,-2.25 2.86,-4.14l0 -6.09c0,-1.59 -0.32,-2.87 -2.21,-2.87l-10.87 0c-4.77,0 -13.09,-3.82 -18.49,-14.37 -4.47,-8.61 -25.22,-67.98 -32.58,-92.86 -6.04,-20.43 -30.94,-91.94 -37.03,-112.05 -0.97,-3.49 -1.59,-5.42 -3.5,-5.42 -1.6,0 -2.54,1.27 -4.12,2.89 -4.8,5.41 -25.58,13.72 -35.77,15.96 -2.55,0.64 -3.2,1.92 -3.2,2.86 0,1.27 1.28,2.89 2.23,4.14 2.24,3.52 0.64,7.67 -0.3,10.87 -2.9,8.62 -28.75,77.25 -31.28,83.6 -10.54,28.12 -33.2,83.64 -37.66,90.34 -6.41,9.58 -14.05,14.04 -21.7,14.04l-8.29 0c-1.96,0 -2.26,0.97 -2.26,2.87l0 6.08c0,2.21 0.3,4.15 2.26,4.15 4.46,0 11.46,-0.97 34.77,-0.97 26.16,0 39.25,0.97 43.4,0.97 2.57,0 2.89,-0.97 2.89,-3.52l0 -7.03c0,-1.27 -0.33,-2.55 -3.52,-2.55l-11.18 0c-9.58,0 -12.44,-7.64 -12.44,-14.68 0,-10.2 15.62,-53.94 18.19,-60.64l69.89 0z"/>
     <path class="fil0" d="M2968.78 136.6l52.03 0c-5.29,-18.38 -20.25,-71.6 -22.46,-79.54 -0.11,-0.37 -0.22,-0.78 -0.33,-1.18 -3.53,9.53 -22.96,62.84 -29.24,80.72zm57.33 7.94l-62.89 0c-1.27,0 -2.45,-0.61 -3.21,-1.63 -0.74,-1.02 -0.95,-2.34 -0.57,-3.56 2.68,-8.37 29.78,-82.68 31.64,-87.57 0.64,-1.94 2.32,-6.78 7.57,-6.78 4.68,0 5.84,4.39 7.34,9.96 2.48,8.89 21.09,75.08 23.91,84.47 0.36,1.19 0.13,2.51 -0.62,3.5 -0.75,1.01 -1.92,1.61 -3.17,1.61zm397.5 -7.94l52.01 0c-5.35,-18.61 -20.55,-72.73 -22.47,-79.54 -0.11,-0.37 -0.21,-0.77 -0.32,-1.17 -3.58,9.67 -22.95,62.83 -29.23,80.71zm57.31 7.94l-62.86 0c-1.27,0 -2.47,-0.61 -3.21,-1.63 -0.75,-1.02 -0.96,-2.34 -0.59,-3.56 2.57,-7.99 29.75,-82.58 31.65,-87.57 0.65,-1.92 2.31,-6.78 7.56,-6.78 4.69,0 5.91,4.62 7.34,9.96 2.13,7.6 21.04,74.87 23.91,84.47 0.36,1.2 0.13,2.51 -0.63,3.5 -0.74,1.01 -1.92,1.61 -3.18,1.61zm1107.97 -7.94l52.04 0c-5.32,-18.48 -20.44,-72.24 -22.47,-79.54 -0.1,-0.39 -0.22,-0.78 -0.32,-1.2 -3.56,9.6 -22.95,62.85 -29.25,80.74zm57.33 7.94l-62.9 0c-1.25,0 -2.43,-0.61 -3.19,-1.63 -0.75,-1.02 -0.97,-2.34 -0.57,-3.56 2.56,-8.04 29.8,-82.76 31.64,-87.58 0.7,-2.1 2.35,-6.77 7.57,-6.77 4.65,0 5.85,4.39 7.33,9.95 2.3,8.18 21.1,75.05 23.91,84.48 0.37,1.2 0.14,2.51 -0.62,3.5 -0.73,1.01 -1.93,1.61 -3.18,1.61zm-951.76 -114.58c-8.38,0 -12.69,0.3 -15.99,2.08l-0.21 0.09c-1.91,0.9 -3.73,2.78 -4.11,10.33 -0.28,12.29 -0.3,49.13 -0.3,60.12l0 22.67c0,4.05 0.3,58.14 0.62,78.13 0.01,6.09 1.34,10.38 4.75,15.39 2.49,3.72 10.8,5.93 22.25,5.93 15.75,0 40.01,-7.79 56.55,-29.7 13.67,-18.15 21.84,-44.46 21.84,-70.39 0,-23.97 -9.75,-50.23 -24.82,-66.91 -16.21,-18.02 -43.3,-27.74 -60.58,-27.74zm7.01 202.67c-10.27,0 -23.62,-1.63 -28.83,-9.43 -4.31,-6.33 -6.08,-12.06 -6.08,-19.76 -0.33,-19.95 -0.62,-74.12 -0.62,-78.19l0.01 -22.67c0,-11 -0.01,-47.93 0.28,-60.4 0.31,-6.31 1.57,-13.83 8.58,-17.18 5.2,-2.77 11.16,-2.98 19.65,-2.98 19.47,-0.01 48.54,10.43 66.46,30.36 16.32,18.05 26.88,46.41 26.88,72.23 0,28.02 -8.55,55.4 -23.47,75.17 -18.26,24.22 -44.44,32.85 -62.86,32.85zm-812.74 -1.72l0 0zm142.96 1.72l0 4.97 0 0.19c1.94,-0.02 4.36,-0.12 7.61,-0.25 7.22,-0.28 18.12,-0.71 35.96,-0.71 29.58,0 41.47,0.5 47.86,0.77 1.94,0.09 3.38,0.14 4.68,0.17l0 -0.17 0 -4.97 -9.13 0c-6.74,0 -16.17,-5.11 -22.03,-16.51 -4.89,-9.42 -25.72,-69.41 -32.83,-93.58 -3.12,-10.49 -11.34,-34.84 -19.29,-58.39 -7.61,-22.56 -14.8,-43.85 -17.74,-53.61 -0.11,-0.42 -0.27,-0.97 -0.43,-1.53 -0.18,0.17 -0.35,0.36 -0.54,0.54 -5.94,6.59 -27.17,14.65 -37.11,16.97 0.19,0.24 0.36,0.47 0.48,0.66l0.21 0.25c0.07,0.08 0.11,0.16 0.17,0.25 3.02,4.74 1.45,9.88 0.4,13.28l-0.26 0.84c-2.88,8.65 -28.46,76.61 -31.4,83.97 -9.8,26.16 -33.13,83.67 -38.03,91.04 -8.74,13.08 -18.43,15.82 -25.01,15.82l-6.56 0 0 4.97 0 0.14c0.91,-0.04 1.97,-0.09 3.22,-0.17 5.05,-0.28 13.52,-0.74 29.83,-0.74 18.79,0 30.65,0.47 37.74,0.76 1.92,0.08 3.45,0.15 4.56,0.18l0 -5.14 -10.71 0c-10.12,0 -16.41,-7.15 -16.41,-18.65 0,-12.15 18.25,-61.56 18.45,-62.05 0.59,-1.54 2.05,-2.55 3.7,-2.55l69.92 0c1.7,0 3.23,1.08 3.76,2.7 3.75,11.27 16.28,52.35 19.23,64.12 1.24,5.4 0.75,9.35 -1.48,12.18 -3.04,3.8 -8.27,4.25 -11.95,4.25l-6.87 0zm97.22 13.08c-1.78,0 -3.61,-0.07 -6.13,-0.18 -6.33,-0.26 -18.09,-0.77 -47.52,-0.77 -17.68,-0.01 -28.49,0.43 -35.65,0.71 -3.6,0.14 -6.2,0.24 -8.39,0.24 -2.8,0 -7.47,-1.05 -7.47,-8.11l0 -6.07c0,-6.51 4.9,-6.83 5.87,-6.83l8.94 0c4.28,0 5.43,-0.88 5.73,-1.27 0.29,-0.36 0.86,-1.58 -0.01,-5.38 -2.7,-10.76 -13.66,-46.79 -18.17,-60.74l-64.27 -0.01c-5.06,13.79 -16.95,48.75 -16.95,56.68 0,7.11 2.82,10.72 8.45,10.72l11.18 0c6.95,0 7.48,4.99 7.48,6.52l0.01 7.02c0,1.84 -0.01,7.47 -6.85,7.47 -1.25,0 -3.15,-0.07 -5.99,-0.18 -7.03,-0.29 -18.79,-0.77 -37.42,-0.77 -16.1,-0.01 -24.42,0.47 -29.39,0.74 -2.28,0.12 -3.93,0.21 -5.4,0.21 -1.87,0 -6.2,-0.78 -6.2,-8.11l0 -6.07c0,-6.18 4.33,-6.83 6.2,-6.83l8.3 0c6.67,0 13.04,-4.25 18.41,-12.29 3.92,-5.89 25.89,-59.17 37.23,-89.51 2.84,-7.1 28.55,-75.43 31.24,-83.49l0.24 -0.79c0.89,-2.88 1.45,-5.04 0.55,-6.57l-0.07 -0.1c-1.27,-1.67 -2.84,-3.76 -2.84,-6.28 0,-1.22 0.44,-5.28 6.19,-6.72 10.45,-2.3 29.94,-10.42 33.74,-14.74 0.06,-0.06 0.12,-0.12 0.17,-0.17l0.63 -0.65c1.47,-1.51 3.3,-3.39 6.32,-3.39 5.05,0 6.37,4.82 7.34,8.34 2.88,9.54 10.05,30.78 17.64,53.27 7.95,23.61 16.21,48.05 19.37,58.68 7.45,25.32 27.96,83.89 32.27,92.18 4.62,8.96 11.49,12.23 14.98,12.23l10.87 0c1.02,0 6.18,0.32 6.18,6.83l0 6.07c0,7.53 -5.23,8.11 -6.81,8.11zm214.62 -14.78l0 0zm239.06 0.16l0 0.01 0 -0.01zm-96.09 1.54l0 4.97 0 0.19c1.96,-0.02 4.36,-0.12 7.61,-0.25 7.23,-0.28 18.12,-0.71 35.97,-0.71 29.59,0 41.48,0.5 47.87,0.77 1.95,0.09 3.37,0.14 4.67,0.17l0 -0.17 0 -4.97 -9.12 0c-6.73,0 -16.17,-5.11 -22.06,-16.51 -4.76,-9.22 -25.89,-70.05 -32.81,-93.58 -3.12,-10.45 -11.27,-34.65 -19.19,-58.1 -7.65,-22.66 -14.88,-44.09 -17.83,-53.9 -0.11,-0.4 -0.27,-0.97 -0.42,-1.54 -0.19,0.18 -0.38,0.37 -0.57,0.57 -5.95,6.58 -27.17,14.63 -37.09,16.95 0.17,0.24 0.35,0.47 0.48,0.66l0.2 0.25 0.17 0.25c3.06,4.77 1.43,9.95 0.37,13.37l-0.25 0.78c-3.01,9.07 -29.1,78.23 -31.37,83.94 -9.72,25.91 -33.05,83.56 -38.07,91.04 -8.69,13.08 -18.39,15.82 -24.99,15.82l-6.56 0 0 4.97 0 0.14c0.9,-0.04 1.95,-0.09 3.22,-0.17 5.07,-0.28 13.52,-0.74 29.83,-0.74 18.81,0 30.67,0.47 37.76,0.76 1.92,0.08 3.44,0.15 4.57,0.18l0 -5.14 -10.72 0c-10.13,0 -16.44,-7.15 -16.44,-18.65 0,-12.14 18.29,-61.56 18.46,-62.05 0.59,-1.54 2.08,-2.55 3.71,-2.55l69.91 0c1.7,0 3.23,1.08 3.77,2.7 3.71,11.15 16.23,52.13 19.24,64.12 1.24,5.4 0.74,9.37 -1.5,12.18 -3.03,3.8 -8.27,4.25 -11.93,4.25l-6.89 0zm151.14 4.2c11.45,0 31.01,0.4 45.3,0.69 7.43,0.14 13.28,0.27 15.03,0.27 17.97,0 72.65,0 102.72,-32.57 21.7,-23.67 30.55,-47.22 30.55,-81.25 0.01,-32.33 -11.87,-59.29 -34.33,-78.02 -28.27,-23.52 -60.15,-28.13 -105.66,-28.13 -3.49,0 -12.68,0.23 -22.38,0.46 -10.24,0.24 -20.84,0.5 -25.15,0.5 -23.51,0 -37.33,-0.51 -44.75,-0.78 -1.43,-0.06 -2.66,-0.1 -3.63,-0.15l0 5.13 14.53 0c5.54,0 13.07,1.29 14.48,12.41 0.69,5.25 1.63,51.02 1.63,58.9l0 23.93c0,24.03 -1.27,96.23 -2.28,103.34 -0.89,7.02 -6.03,11.07 -14.15,11.07l-15.18 0 0 5.11c1.11,-0.03 2.49,-0.08 4.14,-0.15 7.2,-0.29 19.23,-0.76 39.13,-0.76zm60.33 8.88c-1.83,0 -7.45,-0.09 -15.19,-0.27 -14.25,-0.28 -33.78,-0.68 -45.14,-0.68 -19.73,-0.01 -31.68,0.48 -38.81,0.77 -2.9,0.11 -4.83,0.18 -6.18,0.18 -0.86,0 -2.9,-0.17 -4.4,-1.63 -1.62,1.46 -3.65,1.63 -4.56,1.63 -1.77,0 -3.58,-0.07 -6.09,-0.18 -6.33,-0.26 -18.1,-0.77 -47.52,-0.77 -17.69,-0.01 -28.5,0.43 -35.65,0.71 -3.59,0.14 -6.21,0.24 -8.39,0.24 -2.79,0 -7.48,-1.05 -7.48,-8.11l0 -6.07c0,-6.51 4.9,-6.83 5.89,-6.83l8.94 0c4.26,0 5.43,-0.88 5.73,-1.27 0.28,-0.36 0.84,-1.58 -0.02,-5.38 -2.55,-10.12 -13.5,-46.28 -18.16,-60.74l-64.29 -0.01c-5.07,13.81 -16.98,48.77 -16.98,56.68 0,7.11 2.87,10.72 8.5,10.72l11.18 0c6.93,0 7.47,4.99 7.47,6.52l0 7.02c0,1.84 0,7.47 -6.83,7.47 -1.29,0 -3.15,-0.07 -5.99,-0.18 -7.03,-0.29 -18.81,-0.77 -37.44,-0.77 -16.09,-0.01 -24.41,0.47 -29.4,0.74 -2.27,0.12 -3.92,0.21 -5.39,0.21 -1.85,0 -6.2,-0.78 -6.2,-8.11l0 -6.07c0,-6.18 4.35,-6.83 6.2,-6.83l8.3 0c6.69,0 13.04,-4.25 18.39,-12.28 3.95,-5.89 25.57,-58.38 37.28,-89.52 2.29,-5.75 28.23,-74.56 31.2,-83.48l0.24 -0.74c0.89,-2.89 1.47,-5.09 0.57,-6.63l-0.07 -0.1c-1.27,-1.67 -2.82,-3.76 -2.82,-6.28 0,-1.22 0.43,-5.28 6.17,-6.72 10.45,-2.28 29.93,-10.42 33.73,-14.74 0.05,-0.06 0.1,-0.12 0.16,-0.17l0.62 -0.63c1.49,-1.53 3.32,-3.41 6.37,-3.41 5.03,0 6.36,4.82 7.33,8.34 2.88,9.6 10.09,30.95 17.72,53.58 7.93,23.48 16.12,47.78 19.28,58.37 7.44,25.28 27.95,83.86 32.26,92.18 4.62,8.96 11.49,12.23 15,12.23l10.85 0c0.6,0 2.58,0.1 4.13,1.44 1.06,-0.87 2.55,-1.44 4.49,-1.44l16.59 0c5.31,0 6.02,-2.17 6.27,-4.19 0.9,-6.21 2.21,-77.12 2.21,-102.29l0 -23.94c0,-9.55 -1,-53.56 -1.56,-57.88 -0.6,-4.74 -2.09,-5.49 -6.61,-5.49l-15.96 0c-6.04,0 -6.51,-4.75 -6.51,-6.2l0 -9.25c0,-2.77 1.92,-5.56 6.2,-5.56 1.18,0 2.98,0.05 5.69,0.17 7.35,0.27 21.04,0.78 44.43,0.78 4.22,0 14.75,-0.25 24.96,-0.5 9.77,-0.24 18.98,-0.45 22.57,-0.45 47.32,0 80.61,4.9 110.75,29.95 24.34,20.27 37.18,49.36 37.18,84.12 0.01,35.76 -9.75,61.66 -32.64,86.63 -32.44,35.11 -89.76,35.11 -108.57,35.11zm299.06 -88.25c0,0 0,0.02 -0.02,0.02 0.02,-0.01 0.02,-0.02 0.02,-0.02zm66.52 30.16c-0.01,0.03 -0.01,0.07 -0.03,0.09l0.03 -0.09zm-156.47 49.21c34.28,0 60.76,0.12 80.08,0.2 12.12,0.07 21.87,0.11 29.76,0.11 14.62,0.23 22.47,0.46 26.24,0.57 1.49,0.05 2.38,0.08 2.8,0.08 2.13,0 2.85,-0.84 3.28,-2.08l13.89 -46.63 -3.2 -1.88c-6.03,7.04 -23.81,26.89 -32.65,34.02 -9.12,7.37 -19.6,10.72 -26.35,11.39 -6.85,0.66 -20.27,0.99 -25.87,0.99 -17.08,-0.01 -23.1,-1.11 -28.23,-3.17 -0.06,-0.01 -0.13,-0.04 -0.2,-0.09 -6.77,-3.13 -9.95,-11.99 -9.95,-27.84 0,-2.04 -0.22,-7.48 -0.47,-14.39 -0.47,-12.04 -1.13,-28.55 -1.13,-39.56l0 -19.15c0,-2.2 1.78,-3.96 3.96,-3.96 13.74,0 23.93,0.6 33.08,1.95 7.02,1.06 16.01,5.51 20.42,13.1 0.04,0.09 0.1,0.18 0.14,0.26 1.71,3.52 4.89,10.75 6.4,16.3l5.02 -1.06c-0.63,-6.9 -1.78,-21.32 -1.78,-35.2 0,-13.28 0.05,-25.66 0.74,-31.93l-5.62 -0.65c-0.45,6.77 -4.28,15.72 -7.98,20.85 -0.06,0.08 -0.12,0.15 -0.19,0.21 -5.18,6.24 -10.38,9.71 -16.79,11.23 -4.55,1.13 -19.25,2.02 -33.44,2.02 -1.05,-0.01 -2.07,-0.43 -2.81,-1.18 -0.75,-0.75 -1.15,-1.78 -1.15,-2.83l0.96 -92.88c0.01,-1.07 0.44,-2.09 1.22,-2.82 0.77,-0.74 1.81,-1.14 2.87,-1.11l42.11 1.28c10,0.37 19.78,5.21 26.24,9.21 7.31,4.45 34.26,31.12 38.49,36.42l2.9 -1.46c-1.08,-3.57 -3.63,-13.74 -8.37,-32.9 -1.71,-6.87 -3.34,-13.43 -4.11,-16.38 -0.57,0.02 -1.25,0.08 -1.98,0.14 -2.72,0.18 -6.44,0.45 -9.87,0.45l-112.06 0.32c-19.56,0 -31.04,-0.43 -38.62,-0.72 -2.78,-0.1 -5.01,-0.18 -6.89,-0.22l0 5.14 10.07 0c11.1,0 15.57,4.17 17.02,15.91 0.36,3.61 0.97,43.6 0.97,69.44l0 106.93c0,14.11 -3.71,17.37 -19.92,17.37l-8.78 0 0 5.14c1.53,-0.04 3.46,-0.15 5.94,-0.28 1.86,-0.11 4,-0.22 6.49,-0.35 0.07,0 0.13,0 0.19,0 2.69,0 5.83,-0.05 9.45,-0.12 5.07,-0.09 10.83,-0.19 17.68,-0.19zm138.88 8.88c-0.47,0 -1.43,-0.03 -3.04,-0.07 -3.74,-0.11 -11.54,-0.34 -26.06,-0.57l-0.14 0c-7.8,0 -17.51,-0.04 -29.59,-0.1 -19.31,-0.09 -45.79,-0.21 -80.05,-0.21 -6.77,-0.01 -12.49,0.1 -17.55,0.2 -3.64,0.05 -6.76,0.11 -9.5,0.11 -2.42,0.13 -4.5,0.25 -6.31,0.34 -3.24,0.17 -5.58,0.3 -7.49,0.3 -2.56,0 -6.86,-0.97 -6.86,-7.47l0 -6.71c0,-4.15 2.81,-6.83 7.17,-6.83l9.57 0c2.53,0 9.18,0 10.82,-1.48 0.97,-0.89 1.19,-3.83 1.19,-7.96l0 -106.93c0,-26.76 -0.63,-65.53 -0.96,-68.53 -1.05,-8.5 -2.89,-8.89 -9.12,-8.89l-12.45 0c-2.08,0 -5.56,-0.93 -5.56,-7.15l0 -7.68c0,-3.63 2.55,-6.18 6.2,-6.18 2.38,0 5.14,0.1 8.94,0.24 7.52,0.28 18.9,0.71 38.3,0.71l112.06 -0.31c3.15,0 6.7,-0.26 9.32,-0.46 1.59,-0.1 2.74,-0.18 3.47,-0.18 3.13,0 5.44,1.58 6.32,4.35 0.54,1.87 2.3,9.03 4.56,18.1 3.05,12.36 7.68,31.04 8.42,33.04 0.53,1.26 2.13,5.21 -2.57,8.05 -0.11,0.05 -0.19,0.1 -0.3,0.15l-5.08 2.55c-3.24,1.62 -6.97,0.49 -8.96,-2.68 -2.25,-3.05 -29.57,-30.36 -36.38,-34.5 -5.66,-3.52 -14.12,-7.75 -22.34,-8.05l-38.04 -1.15 -0.9 84.8c13.83,-0.16 24.84,-1.11 27.55,-1.77 4.72,-1.13 8.45,-3.65 12.5,-8.48 3.14,-4.39 6.44,-12.36 6.44,-17.37 0.01,-4.22 2.53,-6.83 6.53,-6.83 0.18,0 0.32,0 0.44,0.02l8.62 0.97c0.11,0 0.21,0.03 0.32,0.04 5.78,1.14 6.07,4.93 5.72,7.08 -0.92,5.14 -0.92,22.31 -0.92,32.57 0,14.58 1.31,29.87 1.89,35.89 0.32,2.17 -0.05,5.81 -5.72,6.94l-7.58 1.57c-2.01,0.48 -5.56,0.38 -7.22,-5.32l-0.04 -0.14c-1.07,-4.3 -3.83,-10.94 -5.97,-15.37 -2.96,-4.99 -9.58,-8.36 -14.66,-9.12 -7.84,-1.16 -16.59,-1.75 -27.94,-1.86l0 15.17c0,10.85 0.64,27.26 1.11,39.25 0.29,7 0.5,12.5 0.5,14.7 0,11.79 1.82,18.92 5.29,20.6 4.08,1.63 9.58,2.55 25.15,2.55 5.3,0 18.6,-0.32 25.11,-0.94 5.6,-0.55 14.36,-3.39 22.14,-9.66 8.2,-6.62 26.04,-26.47 32.13,-33.64 0.06,-0.08 0.15,-0.17 0.2,-0.24 3.64,-3.62 6.79,-2.35 8.1,-1.52l5.25 3.07c2.82,1.5 4.09,4.4 3.15,7.29l-14.34 48.09c-1.64,4.88 -5.58,7.61 -10.84,7.61zm105.95 -13.08l0.01 0 -0.01 0zm171.3 4.2c28.67,0 38.98,0.55 43.91,0.82 0.92,0.05 1.64,0.08 2.26,0.11l0 -5.13 -13.59 0c-5.18,0 -11.32,-3.68 -11.32,-21.21 0,-2.76 -0.23,-21.3 -0.48,-39.22 -0.22,-19.25 -0.48,-39.15 -0.48,-42.71 -0.33,-7.6 -0.64,-86.72 -0.64,-90.09 0,-4.5 0,-16.42 12.28,-16.42l12.61 0 0 -5.1c-0.36,0.01 -0.78,0.03 -1.27,0.06 -6.4,0.24 -21.4,0.84 -60.82,0.84 -3.19,0 -9.8,0 -10.9,0.93 -1.16,4.78 -16.67,42.38 -31.67,78.53 -1.79,4.33 -2.98,7.17 -3.22,7.74 -0.43,1.02 -1.81,4.38 -3.78,9.12 -12.07,29.23 -23.6,56.88 -26.16,61.29 -0.76,1.33 -2.23,2.08 -3.75,1.96 -1.54,-0.13 -2.87,-1.13 -3.39,-2.55 -8.89,-23.78 -18.9,-48.52 -29.5,-74.71 -10.57,-26.11 -21.5,-53.1 -31.77,-80.4 -1.1,-2.87 -1.58,-2.87 -3.96,-2.87 -1.18,0 -3.15,0.12 -5.65,0.26 -5.17,0.27 -12.99,0.7 -23.07,0.7 -29.27,0 -41.29,-0.59 -46.41,-0.83 -0.51,-0.03 -0.95,-0.05 -1.33,-0.07l0 5.1 8.79 0c21.53,0 21.53,19.78 21.53,28.22l0.31 48.82c0,6.52 -2.93,81.82 -5.76,104.25 -2.32,18.29 -9.17,28.36 -19.27,28.36l-11.02 0 0 5.13c0.64,-0.03 1.45,-0.07 2.43,-0.11 5.55,-0.28 17.07,-0.82 37.65,-0.82 16.89,0 26.24,0.5 31.28,0.77 1.24,0.07 2.23,0.13 3.05,0.16l0 -5.13 -10.72 0c-14.11,0 -19.55,-20.95 -20.55,-33.34 -1.84,-26.92 -2.25,-69.01 -2.25,-75.63 0,-0.83 0.51,-84.69 2.08,-90.14 0.41,-1.5 1.67,-2.6 3.19,-2.84 1.54,-0.24 3.07,0.45 3.92,1.73 3.09,4.65 33.76,79.81 38.04,90.76 2.16,5.52 43.46,102.51 45.27,106.81 1.13,2.42 1.98,3.16 2.24,3.32 1.05,-0.2 2.71,-3.03 3.45,-4.25 0.23,-0.39 0.44,-0.76 0.64,-1.09 0.86,-1.72 7.1,-17.02 13.16,-31.82 8.71,-21.35 19.57,-47.92 23.37,-56.26 1.99,-4.54 7.78,-18.41 14.5,-34.47 15.97,-38.25 28.34,-67.76 30.39,-71.22 0.72,-1.21 2,-1.95 3.41,-1.95l1.94 -0.01c2.17,0 3.95,1.79 3.95,3.97l0 97.35c0,21.8 -0.96,80.55 -1.3,84.59 -0.72,10.13 -4.58,14.49 -12.89,14.49l-16.45 0 0 5.13c0.94,-0.03 2.17,-0.09 3.64,-0.14 7.01,-0.28 20.01,-0.79 44.08,-0.79zm47.25 8.88c-1.03,0 -2.13,-0.05 -3.75,-0.14 -4.89,-0.26 -15.06,-0.81 -43.5,-0.81 -23.91,-0.01 -36.83,0.51 -43.77,0.8 -2.53,0.08 -4.19,0.15 -5.36,0.15 -2.44,0 -6.53,-0.88 -6.53,-6.84l0 -7.99c0,-3.99 2.32,-6.18 6.53,-6.18l17.86 0c2.97,0 4.47,0 4.99,-7.17 0.29,-3.5 1.26,-61.44 1.26,-83.98l0 -83.13c-6.35,14.72 -16.74,39.63 -24.42,58.04 -6.73,16.11 -12.54,30.01 -14.59,34.67 -3.77,8.24 -14.57,34.73 -23.28,56.02 -9.26,22.68 -12.83,31.38 -13.58,32.72 -0.04,0.05 -0.07,0.11 -0.11,0.17 -0.19,0.31 -0.4,0.67 -0.63,1.04 -1.79,3.05 -4.8,8.17 -10.39,8.17 -3.78,0 -6.92,-2.72 -9.35,-8.08 -0.46,-1.03 -43.11,-101.16 -45.43,-107.12 -4.5,-11.56 -21.37,-52.71 -30.86,-74.96 -0.64,23.95 -1.03,67.39 -1.03,72.57 0,6.58 0.41,48.4 2.22,75.05 1,12.47 6.13,25.99 12.64,25.99l12.46 0c3.81,0 6.18,2.37 6.18,6.18l0 8.63c0,3.9 -2.55,6.2 -6.83,6.2 -1.09,0 -2.48,-0.07 -4.57,-0.18 -4.95,-0.27 -14.19,-0.77 -30.85,-0.77 -20.38,-0.01 -31.79,0.56 -37.26,0.81 -1.94,0.09 -3.12,0.14 -3.92,0.14 -4.72,0 -6.85,-2.11 -6.85,-6.84l0.01 -8.3c0,-3.52 2.36,-5.87 5.87,-5.87l13.09 0c8.07,0 10.76,-16.41 11.39,-21.43 2.82,-22.19 5.71,-96.78 5.71,-103.22l-0.32 -48.82c0,-17.08 -4.78,-20.32 -13.59,-20.32l-10.5 0c-3.85,0 -6.24,-2.38 -6.24,-6.2l0 -8.94c0,-3.52 2.5,-5.87 6.23,-5.87 0.76,0 1.81,0.04 3.44,0.13 5.07,0.23 16.92,0.82 46.02,0.82 9.86,0 17.55,-0.43 22.63,-0.7 2.74,-0.16 4.7,-0.25 6.09,-0.25 4.34,0 8.72,0.97 11.37,8 10.27,27.19 21.16,54.15 31.73,80.21 9.31,23.02 18.18,44.92 26.22,66.08 5.93,-13.52 16.61,-39.37 21.88,-52.12 1.97,-4.81 3.38,-8.19 3.78,-9.13 0.2,-0.49 1.4,-3.36 3.22,-7.76 7.44,-17.95 30.13,-72.52 31.37,-77.48 1.85,-6.85 9.22,-6.85 18.53,-6.85 39.28,0 54.17,-0.6 60.51,-0.84 1.76,-0.07 2.87,-0.11 3.64,-0.11 1.77,0 5.88,0.65 5.88,6.83l0.01 7.35c0,5.94 -4.1,6.83 -6.54,6.83l-14.02 0c-2.43,0 -4.34,0 -4.34,8.49 0,5.9 0.31,83.36 0.63,89.82 0,0.05 0.01,0.13 0.01,0.18 0.01,3.25 0.24,23.31 0.49,42.7 0.24,18.78 0.45,36.5 0.45,39.32 0,9.74 2.03,13.28 3.4,13.28l15.31 0c3.82,0 6.2,2.37 6.2,6.18l0 7.99c0,5.96 -4.29,6.84 -6.84,6.84zm82.02 -8.88c22.47,0 35.22,0.51 42.09,0.79 1.54,0.07 2.79,0.11 3.74,0.14l0 -5.13 -11.68 0c-3.66,0 -14.82,0 -14.82,-15.46 0.01,-1.37 -0.23,-20.12 -0.45,-38.22 -0.24,-19.62 -0.47,-39.91 -0.47,-41.56l0 -24.59c0,-2.04 0.23,-22.13 0.48,-41.57 0.23,-16.95 0.44,-34.49 0.44,-35.98 0.01,-3.7 1.63,-12.27 16.74,-12.27l7.88 0 0 -5.12c-0.94,0.03 -2.03,0.08 -3.35,0.14 -6.4,0.26 -18.36,0.78 -42.2,0.78 -23.22,0 -38.03,-0.51 -45.98,-0.8 -1.46,-0.04 -2.7,-0.08 -3.66,-0.11l0 5.1 13.92 0.01c8.81,0 13.65,4.88 14.47,14.49 0.34,4.32 1.29,61.96 1.29,69.59l0 22.34c0,16.44 -0.94,85.99 -1.63,91.18 -2.02,12.05 -13.85,12.05 -18.3,12.05l-7.82 0 0 5.13c0.77,-0.03 1.75,-0.07 2.97,-0.11 6.79,-0.28 20.94,-0.82 46.34,-0.82zm199.31 -4.2l0 4.97 0 0.19c1.95,-0.02 4.37,-0.12 7.61,-0.25 7.23,-0.28 18.13,-0.71 35.97,-0.71 29.59,0 41.48,0.5 47.86,0.77 1.94,0.09 3.38,0.14 4.65,0.17 0.02,-0.06 0.02,-0.11 0.02,-0.17l0 -4.97 -9.1 0c-6.76,0 -16.2,-5.11 -22.06,-16.51 -4.79,-9.25 -25.9,-70.08 -32.83,-93.58 -3.12,-10.47 -11.31,-34.77 -19.24,-58.25 -7.63,-22.61 -14.82,-43.97 -17.79,-53.75 -0.1,-0.4 -0.26,-0.97 -0.43,-1.53 -0.17,0.17 -0.36,0.36 -0.54,0.56 -5.96,6.58 -27.16,14.63 -37.1,16.95 0.19,0.26 0.37,0.5 0.53,0.69l0.14 0.19c0.08,0.1 0.14,0.19 0.21,0.29 2.99,4.75 1.42,9.88 0.36,13.27l-0.24 0.84c-2.81,8.43 -28.63,77.04 -31.39,83.98 -9.82,26.16 -33.14,83.68 -38.03,91.03 -8.74,13.08 -18.43,15.82 -25.03,15.82l-6.56 0 0 4.97 0 0.14c0.9,-0.04 1.97,-0.09 3.22,-0.17 5.06,-0.28 13.53,-0.74 29.83,-0.74 18.8,0 30.67,0.47 37.75,0.76 1.93,0.08 3.45,0.15 4.56,0.18l0 -5.14 -10.7 0c-10.14,0 -16.41,-7.15 -16.41,-18.65 0,-12.12 18.26,-61.58 18.44,-62.07 0.6,-1.52 2.06,-2.53 3.71,-2.53l69.91 0c1.69,0 3.2,1.08 3.75,2.69 3.72,11.15 16.23,52.14 19.23,64.13 1.26,5.4 0.78,9.37 -1.47,12.18 -3.04,3.8 -8.28,4.25 -11.95,4.25l-6.88 0zm97.2 13.08c-1.77,0 -3.58,-0.07 -6.09,-0.18 -6.32,-0.26 -18.12,-0.77 -47.53,-0.77 -17.67,-0.01 -28.49,0.43 -35.64,0.71 -3.61,0.14 -6.22,0.24 -8.4,0.24 -2.79,0 -7.47,-1.05 -7.47,-8.11l0 -6.07c0,-6.51 4.89,-6.83 5.87,-6.83l8.95 0c4.26,0 5.42,-0.88 5.72,-1.27 0.29,-0.36 0.86,-1.58 -0.03,-5.38 -2.53,-10.13 -13.47,-46.29 -18.15,-60.74l-64.25 -0.01c-5.02,13.53 -17,48.75 -17,56.68 0,7.11 2.87,10.72 8.48,10.72l11.17 0c6.94,0 7.48,4.99 7.48,6.52l0 7.02c0,1.84 0,7.47 -6.84,7.47 -1.27,0 -3.14,-0.07 -5.99,-0.18 -7.02,-0.29 -18.77,-0.77 -37.42,-0.77 -16.1,-0.01 -24.41,0.47 -29.37,0.74 -2.3,0.12 -3.95,0.21 -5.42,0.21 -0.87,0 -2.23,-0.15 -3.47,-1.05 -1.06,0.65 -2.45,1.05 -4.19,1.05 -1.08,0 -2.71,-0.07 -5.18,-0.15 -6.78,-0.29 -19.44,-0.8 -41.74,-0.8 -25.25,-0.01 -39.29,0.56 -46.05,0.81 -2.28,0.09 -3.81,0.14 -4.69,0.14 -3.96,0 -6.52,-2.55 -6.52,-6.51l0 -8.63c0,-2.82 2.04,-5.87 6.52,-5.87l9.25 0c8.04,0 9.87,-1.87 10.44,-5.31 0.59,-4.29 1.55,-72.11 1.55,-89.99l0.01 -22.34c0,-7.28 -0.96,-64.93 -1.26,-68.95 -0.54,-6.14 -2.45,-7.2 -6.57,-7.2l-15.34 0c-4.48,0 -6.52,-3.04 -6.52,-5.87l0 -9.27c0,-3.41 2.61,-5.87 6.2,-5.87 1.06,0 2.89,0.05 5.67,0.15 7.91,0.29 22.62,0.8 45.71,0.8 23.69,0 35.52,-0.51 41.87,-0.78 2.46,-0.1 4.09,-0.17 5.37,-0.17 2.87,0 6.22,1.78 6.22,6.83l0 7.98c0,3.72 -2.63,6.2 -6.55,6.2l-9.24 0c-8.79,0 -8.79,3.15 -8.79,4.34 0,1.55 -0.22,18.32 -0.44,36.08 -0.26,19.42 -0.52,39.49 -0.52,41.47l0 24.59c0,1.59 0.26,21.85 0.5,41.46 0.23,18.97 0.46,36.9 0.46,38.32 0,7.17 2.49,7.53 6.87,7.53l13.09 0c1.46,0 2.72,0.34 3.75,0.95 1.28,-0.81 2.69,-0.95 3.59,-0.95l8.3 0c6.7,0 13.06,-4.25 18.42,-12.28 3.89,-5.89 25.84,-59.18 37.22,-89.52 2.81,-7 28.49,-75.24 31.26,-83.48l0.22 -0.78c0.89,-2.88 1.44,-5.05 0.56,-6.59l-0.02 -0.01c-1.29,-1.71 -2.9,-3.81 -2.9,-6.37 0,-1.22 0.44,-5.28 6.21,-6.72 10.44,-2.28 29.92,-10.42 33.72,-14.74 0.06,-0.06 0.12,-0.12 0.19,-0.19 0.21,-0.23 0.44,-0.45 0.64,-0.65 1.45,-1.5 3.26,-3.37 6.29,-3.37 5.07,0 6.39,4.82 7.35,8.36 2.88,9.55 10.07,30.83 17.67,53.39 7.95,23.55 16.18,47.92 19.33,58.54 7.24,24.61 28.06,84.05 32.28,92.18 4.61,8.96 11.49,12.23 15,12.23l10.83 0c1.03,0 6.21,0.32 6.21,6.83l0 6.07c0,7.53 -5.24,8.11 -6.85,8.11zm-1418.56 -155.12c-0.01,0 -0.01,0 -0.01,0.02 0,-0.02 0,-0.02 0.01,-0.02zm11.78 99.75l0 0zm-93.94 -176.34c-33.4,0 -60.78,11.18 -81.34,33.21 -21.13,22.61 -31.84,50.8 -31.84,83.79 0,26.09 10.35,61.63 33.47,82.25 19.17,17.02 40.47,28.36 82.28,28.36 48.28,0 77.51,-31.34 90.84,-50.43l-2.98 -2.62c-0.07,0.11 -0.16,0.25 -0.25,0.39 -11.21,16.67 -38.47,36.02 -78.69,36.02 -19,0 -36.23,-8.23 -52.64,-25.14 -21.8,-23.02 -29.53,-60.75 -29.53,-86.07 -0.22,-32.42 8.63,-59.32 24.93,-75.73 11.8,-11.89 26.98,-17.91 45.12,-17.91 21.83,0 40.15,7.96 57.66,25.05 12.49,12.79 22.38,29.37 26.56,44.45 0.07,0.19 0.13,0.36 0.2,0.52l4.53 -1.24c0,-0.05 0,-0.07 -0.01,-0.1 -1.54,-9.22 -7.37,-63.76 -7.37,-70.46 0,-0.48 -0.02,-0.85 -0.03,-1.12 -0.84,-0.04 -2.84,-0.04 -4.01,-0.01l-2.26 7.12c-0.7,2.42 -2.23,3.57 -3.4,4.09 -2.79,1.24 -5.91,0.04 -8.86,-1.43 -11.97,-6.5 -35.82,-12.99 -62.38,-12.99zm2.57 235.55c-44.32,0 -67.06,-12.15 -87.56,-30.37 -24.95,-22.26 -36.11,-60.32 -36.11,-88.18 0,-35.06 11.41,-65.07 33.96,-89.21 22.12,-23.71 51.45,-35.73 87.14,-35.73 29.87,0 54.25,7.49 66.05,13.89 0.59,0.29 1.07,0.51 1.44,0.65l2.16 -6.67c1.52,-4.68 4.81,-4.68 9.82,-4.68 6.93,0 9.39,2.37 9.39,9.09 0,5.7 5.67,59.41 7.29,69.23 0.97,6.71 -3.04,8.3 -4.55,8.66l-6.77 1.83c-1.47,0.51 -3.04,0.46 -4.42,-0.18 -1.92,-0.9 -3.38,-2.81 -4.38,-5.85 -0.03,-0.05 -0.04,-0.12 -0.06,-0.2 -3.81,-13.87 -13,-29.21 -24.56,-41.04 -15.85,-15.5 -32.41,-22.74 -52.04,-22.74 -15.94,-0.01 -29.23,5.23 -39.51,15.58 -14.78,14.88 -22.81,39.79 -22.61,70.1 0,5.34 0.77,52.57 27.32,80.6 14.83,15.27 30.18,22.71 46.92,22.71 37.1,0 61.98,-17.46 72.03,-32.41 1.07,-1.72 2.93,-4.23 5.82,-4.71 1.67,-0.29 3.33,0.17 4.73,1.27 0.04,0.04 0.1,0.08 0.14,0.12l5.31 4.67c2.25,1.71 3.43,5.21 0.82,9.13 -14.07,20.36 -45.42,54.44 -97.77,54.44z"/>
     <path class="fil0" d="M6234.47 662.84c0,-74.35 3.24,-234.74 3.24,-248.56 0,-28.66 4.24,-39.29 37.13,-39.29l49.91 -0.01c8.56,0 10.64,-3.19 10.64,-8.49l0 -24.44c0,-7.43 -1.01,-10.62 -9.57,-10.62 -9.55,0 -54.15,3.2 -178.44,3.2 -96.68,-0.01 -134.89,-3.2 -146.6,-3.2 -6.31,0 -7.4,2.12 -7.4,7.43l0 25.5c0,5.32 1.09,10.63 7.4,10.63l39.35 -0.01c24.42,0 29.74,10.64 31.82,38.26 1.09,16.98 3.23,129.57 3.23,197.56l0 59.47c0,64.8 -3.23,329.31 -3.23,349.49 0,11.68 -6.32,26.55 -45.68,26.55l-32.89 0c-6.38,0 -7.47,2.11 -7.47,7.44l0.01 26.55c0,7.43 1.07,9.58 8.55,9.58 13.78,0 51.98,-3.21 157.2,-3.21 97.68,0 403.62,1.06 431.26,3.21 6.34,-28.7 48.84,-203.97 52.01,-211.39 1.07,-6.39 1.07,-7.46 -2.1,-9.57l-21.24 -8.5c-6.39,-3.19 -9.55,0 -12.77,6.39 -15.9,39.3 -88.15,166.76 -145.52,172.06 -57.38,5.32 -105.13,5.32 -155.05,5.32l-60.55 0c-3.24,-42.51 -3.24,-271.93 -3.24,-290l0 -91.35zm-837.03 90.3l209.28 0c-9.55,-31.87 -72.26,-254.94 -79.66,-281.5 -4.23,-15.92 -6.37,-23.36 -11.7,-23.36 -6.39,0 -9.54,4.25 -12.7,13.81 -5.32,13.82 -96.67,264.5 -105.22,291.05zm218.83 42.48l-232.62 0c-8.48,22.3 -60.55,167.83 -60.55,201.84 0,23.34 9.55,48.85 41.44,48.85l37.15 0c10.62,0 11.69,4.25 11.69,8.5l0 23.37c0,8.49 -1.07,11.7 -9.56,11.7 -13.78,0 -57.37,-3.21 -144.42,-3.21 -77.56,0 -100.9,3.21 -115.84,3.21 -6.32,0 -7.39,-6.4 -7.39,-13.84l0 -20.18c0,-6.37 1.07,-9.55 7.39,-9.55l27.66 0c25.49,0 50.98,-14.87 72.24,-46.73 14.87,-22.3 90.28,-207.15 125.32,-300.61 8.48,-21.26 94.51,-249.63 104.06,-278.3 3.24,-10.63 8.56,-24.44 1.09,-36.13 -3.17,-4.25 -7.4,-9.55 -7.4,-13.79 0,-3.19 2.08,-7.45 10.62,-9.58 33.98,-7.43 102.98,-35.06 118.95,-53.09 5.31,-5.34 8.45,-9.57 13.77,-9.57 6.4,0 8.55,6.37 11.72,18.05 20.18,66.92 103.04,304.88 123.23,372.83 24.42,82.86 93.44,280.45 108.31,309.12 18.08,35.05 45.67,47.8 61.61,47.8l36.13 0c6.4,0 7.47,4.25 7.47,9.55l0 20.17c0,6.39 -1.07,13.85 -9.55,13.85 -20.18,0 -42.52,-3.21 -178.48,-3.21 -88.18,0 -125.32,3.21 -146.58,3.21 -10.62,0 -11.69,-6.4 -11.69,-13.84l0 -20.18c0,-5.3 1.07,-9.55 6.38,-9.55l29.74 0c28.65,0 38.2,-10.64 31.87,-38.25 -9.62,-38.23 -50.98,-174.2 -63.76,-212.44zm-923.76 -387.71c2.11,-12.75 5.3,-24.43 11.67,-28.69 8.5,-7.43 22.3,-9.54 40.37,-9.54 31.69,0 79.5,12.74 117.72,46.72 23.38,23.37 40.19,70.12 40.19,118.98 0.01,49.93 -32.75,183.77 -172.78,183.77 -9.55,-0.01 -22.3,0 -42.49,-1.07l5.32 -310.17zm-154.21 298.5c0,100.89 0,200.73 -2.12,305.91 0,26.55 -19.12,33.99 -42.49,33.99l-31.87 0c-5.3,0 -5.3,3.18 -5.3,8.5l0 24.43c0,7.43 0,10.64 8.5,10.64 11.67,0 36.11,-3.21 148.69,-3.21 111.72,0 138.28,3.21 139.33,3.21 15.76,0 16.83,-2.15 16.83,-9.58l0 -25.49c0,-5.32 -1.07,-8.5 -8.5,-8.5l-43.37 0c-15.91,0 -24.45,-19.12 -26.56,-41.43 -2.13,-13.82 -5.32,-132.78 -5.32,-195.45l0 -54.17 36.13 0c50.8,0 94.36,78.6 130.47,150.85 18.08,36.12 83.75,159.31 115.6,183.77 30.81,-1.08 70.1,-3.21 100.91,-3.21 81.79,0 109.37,3.21 117.93,3.21 7.4,0 8.48,-3.21 8.48,-9.58l0 -25.49c0,-4.25 -1.08,-8.5 -8.48,-8.5 -24.43,0 -64.86,-8.51 -77.56,-22.3 -21.26,-24.44 -78.61,-105.16 -84.96,-114.73 -8.52,-12.74 -66.94,-107.28 -80.76,-124.28 -20.17,-25.49 -37.17,-45.68 -69.92,-56.3l0 -7.43c93.29,-8.5 194.19,-69.05 194.19,-203.95 0,-39.31 -22.26,-80.73 -60.52,-115.79 -43.55,-40.36 -105.17,-70.1 -187.85,-70.1 -43.54,0 -136.83,3.2 -196.32,3.2 -115.95,-0.01 -148.89,-3.2 -158.44,-3.2 -5.31,0 -6.39,2.12 -6.39,7.43l0 28.7c0,4.23 1.08,7.43 6.39,7.43l42.49 -0.01c14.85,0 28.67,18.07 29.73,53.12 1.06,28.68 1.06,96.64 1.06,175.26l0 103.05zm-559.62 -335.66l140.23 4.23c28.68,1.06 58.42,14.88 80.72,28.68 24.43,14.87 120.03,110.48 125.35,118.97 3.18,5.31 8.5,6.38 12.73,4.24l17 -8.48c5.31,-3.2 5.31,-5.32 3.19,-10.62 -4.25,-10.65 -39.31,-156.17 -43.56,-171.04 -1.05,-3.18 -3.17,-5.3 -8.48,-5.3 -5.33,0 -25.51,2.12 -42.5,2.12l-373.02 1.07c-96.65,0 -133.83,-3.19 -157.2,-3.19 -6.39,0 -7.44,4.26 -7.44,7.43l0 25.5c0,7.43 1.05,10.63 5.32,10.63l41.41 -0.01c28.69,0 39.31,7.44 43.56,41.42 1.05,10.63 3.19,141.28 3.19,229.45l0.01 355.83c0,37.19 -4.27,44.63 -53.13,44.63l-31.86 0c-7.45,0 -10.63,3.18 -10.63,9.55l0 22.32c0,8.49 2.13,11.7 9.57,11.7 9.55,0 23.37,-1.08 45.68,-2.15 21.25,0 50.99,-1.06 90.29,-1.06 183.94,0 296.54,1.06 365.56,1.06 68,1.07 91.38,2.15 96.68,2.15 12.73,0 20.19,-6.4 23.36,-15.95l47.81 -160.4c1.06,-3.19 -0.01,-6.39 -4.24,-8.5l-18.06 -10.6c-3.2,-2.15 -6.39,-1.09 -10.63,3.18 -21.6,25.47 -81.08,91.34 -108.71,113.64 -27.6,22.31 -59.48,32.94 -80.73,35.06 -22.3,2.11 -66.74,3.18 -84.79,3.18 -53.12,0 -73.12,-3.18 -89.05,-9.55 -13.81,-6.38 -25.49,-25.49 -25.49,-80.73 0,-19.14 -5.3,-122.17 -5.3,-179.53l0 -63.73c46.72,0 79.47,2.13 108.15,6.37 21.25,3.2 46.74,17 58.42,37.19 6.2,12.74 16.82,37.18 21.08,54.17 2.12,7.43 4.24,9.56 8.48,8.5l25.5 -5.3c5.33,-1.09 9.55,-2.14 8.49,-8.51 -2.12,-22.3 -6.37,-73.3 -6.37,-121.09 0,-37.19 0,-92.42 3.21,-110.48 1.04,-6.38 -3.21,-7.44 -8.51,-8.5l-28.68 -3.18c-5.32,0 -8.52,2.11 -8.52,9.56 0,20.18 -12.73,49.92 -24.24,65.86 -15.92,19.11 -30.81,28.67 -48.86,32.93 -12.74,3.2 -59.32,6.37 -108.15,6.37l3.16 -309.09zm-1173.02 326.08c0,-12.75 2.11,-281.48 6.38,-296.35 8.48,12.76 106.2,250.69 125.33,299.53 7.43,19.13 147.64,348.41 150.83,355.85 5.31,11.68 11.71,19.12 19.12,19.12 12.75,0 20.19,-15.92 25.49,-24.42 5.31,-9.57 99.85,-245.37 122.18,-294.23 19.1,-43.56 138.08,-332.49 148.69,-350.53l6.37 0 0 323.96c0,74.37 -3.18,267.7 -4.25,280.42 -2.12,29.75 -11.68,36.13 -29.74,36.13l-59.48 0c-7.43,0 -8.5,2.11 -8.5,7.44l0 26.55c0,6.37 1.07,9.58 8.5,9.58 13.8,0 55.25,-3.21 163.57,-3.21 125.35,0 144.46,3.21 157.22,3.21 8.51,0 9.57,-3.21 9.57,-9.58l0 -26.55c0,-4.26 -1.06,-7.44 -7.45,-7.44l-50.98 0c-14.87,0 -24.44,-17.01 -24.44,-57.36 0,-19.12 -3.18,-251.75 -3.18,-273 -1.05,-22.3 -2.12,-283.61 -2.12,-299.55 0,-22.3 3.18,-41.41 27.63,-41.41l46.74 -0.01c7.41,0 8.49,-3.19 8.49,-9.56l0 -24.43c0,-6.37 -1.08,-9.56 -6.39,-9.56 -11.67,0 -47.8,3.2 -213.5,3.2 -31.88,-0.01 -45.68,1.06 -48.86,12.74 -5.32,21.23 -111.54,275.1 -115.78,285.73 -6.37,14.87 -87.09,212.44 -98.79,232.63 -59.48,-159.32 -135.96,-335.67 -203.94,-516.25 -6.37,-16.98 -14.87,-18.05 -25.51,-18.05 -12.74,0 -45.66,3.2 -95.58,3.2 -125.35,-0.01 -154.04,-3.2 -164.66,-3.2 -6.37,0 -7.43,3.2 -7.43,6.37l0 29.76c0,4.23 1.06,7.43 7.43,7.43l35.07 -0.01c47.78,0 58.4,31.87 58.4,80.75l1.07 162.5c0,19.12 -9.57,269.81 -19.12,345.22 -4.23,34.01 -16.99,82.86 -50.98,82.86l-43.54 0c-5.32,0 -6.39,3.18 -6.39,6.38l0 27.61c0,8.5 1.07,9.58 9.55,9.58 9.57,0 46.75,-3.21 137.04,-3.21 77.55,0 106.22,3.21 117.9,3.21 8.5,0 9.56,-3.21 9.56,-7.45l0 -28.68c0,-4.26 -1.07,-7.44 -7.44,-7.44l-41.41 0c-35.05,0 -52.06,-59.48 -55.24,-98.79 -6.37,-93.48 -7.43,-237.94 -7.43,-250.69zm-855.08 -16.99c0,139.15 4.23,210.31 22.29,255.99 25.5,67.99 72.23,117.92 123.22,140.21 44.61,19.13 112.59,26.57 162.52,26.57 69.04,0 141.27,-24.43 188.02,-65.86 55.24,-48.87 83.89,-115.79 90.28,-202.89 3.18,-41.43 5.31,-227.32 5.31,-242.19 0,-14.87 0,-161.45 2.12,-176.32 2.14,-10.63 5.3,-40.36 45.68,-40.36l32.92 -0.01c5.32,0 6.39,-4.23 6.39,-10.61l0 -23.38c0,-5.3 -1.07,-9.56 -10.62,-9.56 -9.57,0 -43.55,3.2 -100.92,3.2 -72.23,-0.01 -121.09,-3.2 -131.72,-3.2 -6.37,0 -7.43,2.12 -7.43,7.43l0 27.63c0,5.3 1.05,8.5 7.43,8.5l33.99 -0.01c18.08,0 35.05,19.12 39.31,46.74 4.26,24.44 14.88,141.28 14.88,230.5l0 163.57c0,76.49 -24.44,134.91 -66.93,173.16 -28.68,26.55 -86.04,46.72 -125.33,46.72 -47.81,0 -97.73,-16.99 -132.79,-59.46 -23.36,-29.76 -32.93,-77.55 -33.98,-126.41 -1.07,-34.01 -5.32,-168.89 -5.32,-225.2l0 -70.1c0,-54.18 1.06,-126.4 2.13,-138.1 2.12,-21.24 20.18,-41.41 56.3,-41.41l36.1 -0.01c7.44,0 8.51,-2.12 8.51,-7.42l0 -27.63c0,-6.38 -1.07,-8.5 -9.57,-8.5 -11.69,0 -62.67,3.2 -156.14,3.2 -111.54,-0.01 -163.6,-3.2 -174.2,-3.2 -8.5,0 -9.57,2.12 -9.57,8.5l0 25.49c0,7.44 1.07,9.57 7.43,9.57l49.93 -0.01c22.3,0 29.75,16.99 29.75,54.17l0.01 250.69zm-254.95 194.4l-4.24 0c-11.69,-13.82 -166.77,-208.2 -181.66,-226.27 -31.86,-39.28 -241.1,-295.3 -246.43,-301.67 -8.5,-9.57 -16.99,-13.8 -30.79,-13.8 -12.76,0 -44.61,2.13 -80.75,2.13 -55.23,-0.01 -89.21,-1.08 -110.47,-2.13 -20.17,0 -28.65,-1.07 -33.97,-1.07 -5.3,0 -6.38,2.12 -6.38,6.37l0 28.69c0,3.19 1.08,7.43 6.38,7.43l26.55 1.06c53.12,1.06 91.34,60.54 91.34,123.22l0 95.59c0,157.21 -8.49,327.17 -9.56,347.36 -5.29,71.17 -22.29,105.16 -45.67,105.16l-37.18 0c-5.31,0 -6.38,3.18 -6.38,6.38l0.01 27.61c0,7.43 1.06,9.58 5.33,9.58 10.61,0 83.89,-3.21 116.84,-3.21 49.91,0 113.64,3.21 124.28,3.21 7.41,0 8.48,-2.15 8.48,-8.52l0 -25.5c0,-6.37 -1.07,-9.55 -8.48,-9.55l-26.57 0c-44.62,0 -63.73,-31.86 -65.85,-93.47 -1.07,-40.38 -10.62,-171.02 -10.62,-259.19l0 -214.57 8.5 0c24.44,35.06 171,217.75 189.07,239 20.18,23.38 105.15,125.33 181.63,215.64 63.74,75.41 115.8,131.7 133.85,148.71 11.68,11.67 25.48,16.99 41.42,16.99 14.89,0 15.93,-19.12 15.93,-35.06l0 -181.64c0,-140.23 17.01,-380.27 24.43,-451.45 3.18,-38.22 13.81,-56.28 31.87,-56.28l29.74 -0.01c4.25,0 5.33,-4.23 5.33,-9.56l0 -25.49c0,-6.38 -1.08,-8.5 -10.63,-8.5 -11.68,0 -37.17,3.2 -100.9,3.2 -78.62,-0.01 -112.61,-3.2 -124.3,-3.2 -8.5,0 -9.55,2.12 -9.55,7.43l0 26.56c0,6.37 1.05,9.57 6.35,9.57l34.01 -0.01c24.44,0 49.92,14.88 56.3,41.42 3.18,15.94 8.5,120.04 9.55,161.47 2.13,53.11 3.19,105.16 3.19,199.7l0 96.67z"/>
    </g>
   </g>
  </g>
 </g>
</svg>
